<svg width="71" height="70" viewBox="0 0 71 70" fill="none" xmlns="http://www.w3.org/2000/svg">
<path d="M11.24 36.2148L15.53 31.5148L22.28 24.1048L15.45 24.1648L15.55 23.7848C15.68 23.3148 15.83 22.8448 15.99 22.3948C17.2065 18.9805 19.3056 15.9494 22.0739 13.6097C24.8422 11.27 28.1807 9.70534 31.75 9.07481C32.22 8.95481 32.69 8.84481 33.17 8.74481C35.7771 8.2346 38.4413 8.07986 41.09 8.28481L41.75 8.35481L42.43 8.41481C42.88 8.47481 43.33 8.53481 43.77 8.61481C44.21 8.69481 44.89 8.81481 45.44 8.94481H45.66C46.18 9.06481 46.66 9.19481 47.2 9.34481L47.47 9.42481C47.98 9.57481 48.47 9.74481 48.96 9.91481L49.2 10.0048C49.7 10.1948 50.2 10.3848 50.67 10.5948L50.79 10.6448C51.27 10.8548 51.74 11.0748 52.2 11.3148L52.33 11.3748C52.79 11.6148 53.24 11.8648 53.68 12.1248L53.9 12.2448C54.33 12.5048 54.75 12.7648 55.16 13.0448L55.37 13.1948C55.7767 13.4748 56.1767 13.7648 56.57 14.0648L56.72 14.1748C57.12 14.4948 57.51 14.8148 57.89 15.1748C58.27 15.5148 58.63 15.8648 58.98 16.1748L59.13 16.3248C59.46 16.6648 59.78 17.0048 60.13 17.3248L60.3 17.5148C60.6 17.8748 60.89 18.2348 61.16 18.6048L61.3 18.7948C61.58 19.1748 61.85 19.5648 62.1 19.9648L62.16 20.0548C62.4 20.4448 62.63 20.8448 62.85 21.2448C62.8707 21.2947 62.8975 21.3417 62.93 21.3848C63.14 21.7948 63.33 22.2048 63.51 22.6148L63.62 22.8548C63.79 23.2548 63.95 23.6648 64.09 24.0848C64.09 24.0848 64.09 24.1548 64.09 24.1948C62.9002 17.4369 59.374 11.3119 54.1273 6.88957C48.8806 2.46726 42.247 0.0288399 35.3853 0.000254209C28.5235 -0.0283314 21.8699 2.35474 16.5865 6.73318C11.3032 11.1116 7.72605 17.2071 6.48 23.9548V24.1948L0 24.2948L11.24 36.2148Z" fill="#59910B"/>
<path d="M59.3198 33.6948L54.9998 38.3948L48.2498 45.8048L55.0798 45.7448L54.9798 46.1248C54.8498 46.5948 54.6998 47.0648 54.5398 47.5148C53.3276 50.9263 51.2335 53.9559 48.4706 56.2956C45.7077 58.6352 42.3744 60.2014 38.8098 60.8348C38.3398 60.9548 37.8598 61.0648 37.3798 61.1648C34.7766 61.6793 32.1151 61.8341 29.4698 61.6248H29.0098L28.1298 61.5348C27.6798 61.4748 27.2298 61.4148 26.7898 61.3348C26.3498 61.2548 25.6698 61.1348 25.1198 61.0048H24.8998C24.3798 60.8848 23.8998 60.7448 23.3498 60.6048L23.0898 60.5248C22.5898 60.3748 22.0898 60.2048 21.5998 60.0348L21.3698 59.9448C20.8598 59.7548 20.3698 59.5648 19.8798 59.3548L19.7798 59.3048C19.2898 59.0948 18.7798 58.8648 18.3498 58.6348L18.2298 58.5748C17.7698 58.3348 17.3198 58.0848 16.8698 57.8248L16.6598 57.7048C16.2298 57.4448 15.8098 57.1848 15.3998 56.9048L15.1898 56.7648C14.7798 56.4748 14.3698 56.1848 13.9798 55.8848L13.8398 55.7748C13.4398 55.4548 13.0398 55.1348 12.6598 54.7748C12.2798 54.4348 11.9198 54.0848 11.5598 53.7748L11.4198 53.6248C11.0898 53.2848 10.7698 52.9348 10.4198 52.6248L10.2498 52.4348C9.94978 52.0748 9.65978 51.7148 9.37978 51.3448C9.3523 51.2113 9.31211 51.0807 9.25978 50.9548C8.97978 50.5748 8.70978 50.1848 8.45978 49.7848L8.40978 49.7048C8.15978 49.3048 7.92978 48.9048 7.70978 48.4948C7.68263 48.4537 7.65921 48.4101 7.63978 48.3648C7.41978 47.9548 7.21978 47.5448 7.03978 47.1248C7.01255 47.0489 6.9791 46.9753 6.93978 46.9048C6.76978 46.4948 6.60978 46.0748 6.46978 45.6548C6.4658 45.6216 6.4658 45.588 6.46978 45.5548C7.55778 51.9411 10.7337 57.7861 15.5 62.1737C20.2662 66.5614 26.3535 69.2438 32.8078 69.8008C39.2621 70.3577 45.7189 68.7576 51.1663 65.2512C56.6137 61.7449 60.7439 56.5304 62.9098 50.4248C63.4124 48.9666 63.8035 47.4723 64.0798 45.9548V45.7148L70.5198 45.6548L59.3198 33.6948Z" fill="#59910B"/>
<path d="M31.6898 49.4448V47.6548H35.2798V30.5648H25.8198V52.3248C25.8225 52.9331 26.066 53.5155 26.497 53.9447C26.9281 54.3739 27.5116 54.6148 28.1198 54.6148H35.2798V49.4448H31.6898Z" fill="#2A6C7C"/>
<path d="M35.2798 47.6548H38.8698V49.4448H35.2798V54.6148H42.4398C43.0481 54.6148 43.6316 54.3739 44.0626 53.9447C44.4937 53.5155 44.7371 52.9331 44.7398 52.3248V30.5648H35.2798V47.6548Z" fill="#195467"/>
<path d="M35.2798 28.2848H34.3898V25.5848H31.6898V23.7948H34.3898V21.0948H35.2798V18.1948H28.1198C27.5098 18.1948 26.9248 18.4371 26.4935 18.8685C26.0621 19.2998 25.8198 19.8848 25.8198 20.4948V30.5648H35.2798V28.2848Z" fill="#64B9CD"/>
<path d="M42.4398 18.1948H35.2798V21.0948H36.1698V23.7948H38.8698V25.5848H36.1698V28.2848H35.2798V30.5648H44.7398V20.4948C44.7398 20.1928 44.6803 19.8937 44.5647 19.6147C44.4491 19.3356 44.2797 19.0821 44.0661 18.8685C43.8526 18.6549 43.599 18.4855 43.32 18.3699C43.0409 18.2543 42.7418 18.1948 42.4398 18.1948Z" fill="#53ADBC"/>
<path d="M40.9998 18.1948C40.9998 17.5503 40.7438 16.9322 40.2881 16.4765C39.8323 16.0208 39.2143 15.7648 38.5698 15.7648H35.2798V18.2148L40.9998 18.1948Z" fill="#69B2B2"/>
<path d="M35.2798 15.7448H31.9998C31.3553 15.7448 30.7373 16.0008 30.2816 16.4565C29.8258 16.9122 29.5698 17.5303 29.5698 18.1748H35.3298L35.2798 15.7448Z" fill="#7DC5C9"/>
<path d="M35.2801 25.5848H34.3901V28.2848H35.2801V25.5848Z" fill="white"/>
<path d="M36.1698 25.5848H35.2798V28.2848H36.1698V25.5848Z" fill="white"/>
<path d="M35.2801 21.0948H34.3901V23.7948H35.2801V21.0948Z" fill="white"/>
<path d="M36.1698 21.0948H35.2798V23.7948H36.1698V21.0948Z" fill="white"/>
<path d="M34.3899 23.7948H31.6899V25.5848H34.3899V23.7948Z" fill="white"/>
<path d="M38.8699 23.7948H36.1699V25.5848H38.8699V23.7948Z" fill="white"/>
<path d="M36.1698 23.7948H35.2798V25.5848H36.1698V23.7948Z" fill="white"/>
<path d="M35.2801 23.7948H34.3901V25.5848H35.2801V23.7948Z" fill="white"/>
<path d="M35.2799 47.6548H31.6899V49.4448H35.2799V47.6548Z" fill="white"/>
<path d="M38.8698 47.6548H35.2798V49.4448H38.8698V47.6548Z" fill="white"/>
</svg>
