<svg width="38" height="70" viewBox="0 0 38 70" fill="none" xmlns="http://www.w3.org/2000/svg">
<g clip-path="url(#clip0)">
<path d="M9.49023 49.1201C10.9702 49.4801 13.1002 49.9801 13.3302 50.0101H18.7002V47.6701L9.54023 46.5401V46.1801V49.1201H9.49023Z" fill="#195467"/>
<path d="M27.8602 46.54L18.7002 47.67V50H24.1202C25.4007 49.7959 26.6617 49.4848 27.8902 49.07V46.33L27.8602 46.54Z" fill="#0F4956"/>
<path d="M13.2602 65.91C11.9651 65.7438 10.6975 65.4076 9.49023 64.91L10.4102 66.3C12.7175 68.2331 15.6302 69.2948 18.6402 69.3H18.7002V65.91H13.2602Z" fill="#195467"/>
<path d="M9.49023 55.26C10.9702 55.62 13.1002 56.12 13.3302 56.15H18.7002V53.63H13.2602C11.9651 53.4638 10.6975 53.1275 9.49023 52.63V55.21V55.26Z" fill="#195467"/>
<path d="M18.7002 65.91V69.34C21.7105 69.3365 24.6238 68.2745 26.9302 66.34L27.8502 65.23C26.6495 65.6978 25.3686 65.9254 24.0802 65.9L18.7002 65.91Z" fill="#0F4956"/>
<path d="M9.49023 61.4C10.9702 61.76 13.1002 62.26 13.3302 62.29H18.7002V59.77H13.2602C11.9651 59.6038 10.6975 59.2675 9.49023 58.77V61.4Z" fill="#195467"/>
<path d="M18.7002 59.77V62.29H24.1202C25.4007 62.0859 26.6617 61.7748 27.8902 61.36V59.1C26.6895 59.5678 25.4086 59.7954 24.1202 59.77H18.7002Z" fill="#0F4956"/>
<path d="M24.1202 56.15C25.4007 55.9459 26.6617 55.6349 27.8902 55.22V53C26.6895 53.4678 25.4086 53.6954 24.1202 53.67H18.7002V56.19L24.1202 56.15Z" fill="#0F4956"/>
<path d="M27.8902 49.08C26.6617 49.4948 25.4007 49.8059 24.1202 50.01H18.7002V53.63H24.1202C25.4059 53.6681 26.6867 53.4541 27.8902 53V52.72C27.9905 52.7588 28.0874 52.8056 28.1802 52.86C28.8254 52.6262 29.3885 52.2094 29.8005 51.6606C30.2126 51.1118 30.4557 50.4548 30.5002 49.77C30.5002 48.38 29.5002 47.25 27.8902 46.58V49.12V49.08Z" fill="#349299"/>
<path d="M18.6999 53.63V50H13.3299C13.0999 50 10.9699 49.47 9.48988 49.11V46.54C7.86988 47.22 6.87988 48.36 6.87988 49.77C6.87988 51.18 8.10988 52.1 9.48988 52.68C10.6972 53.1776 11.9647 53.5138 13.2599 53.68L18.6999 53.63Z" fill="#3FA4A9"/>
<path d="M9.48988 55.0601V52.6801C7.86988 53.3601 6.87988 54.5001 6.87988 55.9101C6.87988 57.3201 8.10988 58.2401 9.48988 58.8201V55.0601Z" fill="#3FA4A9"/>
<path d="M27.8901 55V58.78C27.9904 58.8188 28.0874 58.8656 28.1801 58.92C28.8489 58.7312 29.4378 58.3292 29.8571 57.775C30.2765 57.2209 30.5034 56.545 30.5034 55.85C30.5034 55.1551 30.2765 54.4792 29.8571 53.925C29.4378 53.3709 28.8489 52.9688 28.1801 52.78L27.8901 52.92V55Z" fill="#349299"/>
<path d="M18.7002 59.77V56.15H13.3302C13.1002 56.15 10.9702 55.62 9.49023 55.26V58.82C10.6975 59.3175 11.9651 59.6538 13.2602 59.82L18.7002 59.77Z" fill="#3FA4A9"/>
<path d="M18.7002 56.15V59.77H24.1202C25.4086 59.7954 26.6895 59.5678 27.8902 59.1V55.22C26.6617 55.6348 25.4007 55.9459 24.1202 56.15H18.7002Z" fill="#349299"/>
<path d="M27.8901 53L28.1801 52.86C28.0874 52.8056 27.9904 52.7588 27.8901 52.72V53Z" fill="#A6CFE5"/>
<path d="M27.8901 61.18V65.24C29.5101 64.56 30.5001 63.42 30.5001 62.01C30.4462 61.3388 30.1982 60.6977 29.7862 60.165C29.3743 59.6323 28.8162 59.231 28.1801 59.01C28.0874 59.0644 27.9904 59.1112 27.8901 59.15V61.18Z" fill="#349299"/>
<path d="M9.48988 61.1999V58.8199C7.86988 59.4999 6.87988 60.6399 6.87988 62.0499C6.87988 63.4599 8.10988 64.3799 9.48988 64.9999V61.1999Z" fill="#3FA4A9"/>
<path d="M18.7002 65.91V62.29H13.3302C13.1002 62.29 10.9702 61.76 9.49023 61.4V65C10.6975 65.4975 11.9651 65.8338 13.2602 66L18.7002 65.91Z" fill="#3FA4A9"/>
<path d="M24.1202 62.29H18.7002V65.91H24.1202C25.4086 65.9354 26.6895 65.7078 27.8902 65.24V61.36C26.6617 61.7748 25.4007 62.0859 24.1202 62.29Z" fill="#349299"/>
<path d="M27.8901 59.0999C27.9904 59.0611 28.0874 59.0143 28.1801 58.9599C28.0874 58.9056 27.9904 58.8587 27.8901 58.8199V59.0999Z" fill="#A6CFE5"/>
<path d="M18.7 41V0C8.37002 0 1.50395e-05 7.68 1.50395e-05 17.15C-0.00319996 19.4766 0.509074 21.775 1.50002 23.88C3.48002 28.12 7.00002 32.47 8.00002 37L9.48001 46.19V41H18.7ZM5.57002 16.3C5.57002 16.605 5.44885 16.8975 5.23319 17.1132C5.01752 17.3288 4.72501 17.45 4.42002 17.45C4.11502 17.45 3.82251 17.3288 3.60684 17.1132C3.39118 16.8975 3.27002 16.605 3.27002 16.3C3.30434 12.8043 4.72394 9.46503 7.21733 7.01476C9.71073 4.56448 13.0743 3.20335 16.57 3.23C16.7267 3.21521 16.8847 3.23331 17.0339 3.28312C17.1832 3.33293 17.3204 3.41337 17.4368 3.51927C17.5531 3.62517 17.6461 3.75422 17.7097 3.89813C17.7733 4.04204 17.8062 4.19765 17.8062 4.355C17.8062 4.51235 17.7733 4.66796 17.7097 4.81187C17.6461 4.95578 17.5531 5.08483 17.4368 5.19073C17.3204 5.29663 17.1832 5.37707 17.0339 5.42688C16.8847 5.47669 16.7267 5.49479 16.57 5.48C13.6773 5.45869 10.8943 6.58607 8.83191 8.61466C6.76957 10.6433 5.59643 13.4073 5.57002 16.3Z" fill="#7BCFE4"/>
<path d="M18.7002 47.67V41H9.49023V46.18L9.54023 46.54L18.7002 47.67Z" fill="#7BCFE4"/>
<path d="M18.7002 34.3V41H27.8902V46.33L29.4002 37C30.4002 32.48 33.9302 28.13 35.9102 23.89C36.8964 21.7834 37.4085 19.486 37.4102 17.16C37.4102 7.68 29.0002 0 18.7002 0V34.3Z" fill="#64B9CD"/>
<path d="M18.7002 41V47.67L27.8602 46.54L27.8902 46.33V41H18.7002Z" fill="#64B9CD"/>
<path d="M17.72 4.36C17.7187 4.21029 17.6879 4.0623 17.6294 3.92449C17.5709 3.78668 17.4859 3.66174 17.3791 3.55681C17.2723 3.45188 17.1459 3.36901 17.007 3.31294C16.8682 3.25686 16.7197 3.22868 16.57 3.23C13.0743 3.20335 9.71073 4.56448 7.21734 7.01475C4.72394 9.46503 3.30435 12.8043 3.27002 16.3C3.27002 16.605 3.39118 16.8975 3.60685 17.1132C3.82251 17.3288 4.11502 17.45 4.42002 17.45C4.72502 17.45 5.01753 17.3288 5.23319 17.1132C5.44886 16.8975 5.57002 16.605 5.57002 16.3C5.59643 13.4073 6.76957 10.6433 8.83192 8.61466C10.8943 6.58607 13.6773 5.45868 16.57 5.48C16.7192 5.48265 16.8675 5.4557 17.0063 5.40073C17.145 5.34575 17.2715 5.26383 17.3785 5.1597C17.4854 5.05556 17.5706 4.93128 17.6292 4.79402C17.6879 4.65676 17.7187 4.50925 17.72 4.36Z" fill="white"/>
<path d="M23.33 47.29L22.33 47.14L25.84 24.14C25.69 23.75 25.06 22.4 23.84 22.26C23.343 22.1828 22.837 22.1828 22.34 22.26C22.6763 22.483 22.9586 22.7783 23.1662 23.1243C23.3738 23.4703 23.5015 23.8583 23.54 24.26C23.5582 24.5024 23.5187 24.7456 23.4249 24.9698C23.331 25.194 23.1854 25.3928 23 25.55C22.5491 25.8622 22.0078 26.0169 21.46 25.99C21.0649 26.0414 20.6635 25.9738 20.3072 25.7956C19.9509 25.6174 19.6559 25.3369 19.46 24.99C19.2909 24.6391 19.2238 24.2478 19.2662 23.8606C19.3087 23.4734 19.459 23.1059 19.7 22.8C19.8089 22.6446 19.9293 22.4975 20.06 22.36C19.6971 22.2937 19.3289 22.2602 18.96 22.26C18.3059 22.2501 17.6555 22.3585 17.04 22.58C17.3924 22.8275 17.691 23.1439 17.9179 23.5099C18.1448 23.876 18.2952 24.2842 18.36 24.71C18.3664 24.9107 18.3187 25.1094 18.2219 25.2853C18.1252 25.4612 17.9829 25.6079 17.81 25.71C17.4054 25.9375 16.9431 26.0418 16.48 26.01C15.9063 26.0424 15.3366 25.8957 14.85 25.59C14.6505 25.4556 14.4876 25.2738 14.3759 25.0608C14.2641 24.8479 14.2071 24.6105 14.21 24.37C14.2373 24.0142 14.3407 23.6685 14.5132 23.3563C14.6858 23.044 14.9234 22.7724 15.21 22.56C14.8348 22.3678 14.4214 22.2619 14 22.25C13.7496 22.2365 13.499 22.2727 13.2627 22.3566C13.0264 22.4404 12.809 22.5702 12.6231 22.7385C12.4372 22.9067 12.2864 23.1101 12.1794 23.3369C12.0725 23.5638 12.0115 23.8095 12 24.06L15.52 47.14L14.52 47.29L11 24.1V24.05C11.0129 23.6691 11.1008 23.2944 11.2586 22.9475C11.4164 22.6006 11.641 22.2882 11.9196 22.0281C12.1982 21.7681 12.5254 21.5655 12.8824 21.432C13.2393 21.2985 13.6191 21.2366 14 21.25C14.7399 21.2893 15.4583 21.5127 16.09 21.9C16.978 21.4588 17.9585 21.236 18.95 21.25C19.6894 21.2454 20.4239 21.3706 21.12 21.62C22.0285 21.237 23.0242 21.1091 24 21.25C26.07 21.5 26.86 23.82 26.89 23.92V24.03V24.15L23.33 47.29ZM21.17 22.73C20.9117 22.8917 20.6875 23.1023 20.51 23.35C20.3779 23.5109 20.2908 23.7039 20.2574 23.9094C20.2241 24.1149 20.2456 24.3255 20.32 24.52C20.4425 24.6892 20.6085 24.8222 20.8003 24.905C20.9922 24.9877 21.2028 25.0171 21.41 24.99C21.7338 25.0194 22.0581 24.9383 22.33 24.76C22.3939 24.7082 22.4451 24.6426 22.4797 24.5681C22.5144 24.4936 22.5316 24.4121 22.53 24.33C22.4572 23.97 22.2943 23.6344 22.0564 23.3545C21.8186 23.0747 21.5136 22.8598 21.17 22.73ZM16.06 23.08C15.831 23.2152 15.6344 23.399 15.4841 23.6185C15.3338 23.8379 15.2334 24.0876 15.19 24.35C15.1856 24.4294 15.2028 24.5085 15.2397 24.579C15.2767 24.6494 15.3321 24.7085 15.4 24.75C15.7213 24.9343 16.0906 25.0179 16.46 24.99C16.61 24.99 17.34 24.99 17.34 24.7C17.34 24.41 16.79 23.61 16.06 23.08Z" fill="white"/>
</g>
<defs>
<clipPath id="clip0">
<rect width="37.41" height="69.34" fill="white"/>
</clipPath>
</defs>
</svg>
