<svg width="32" height="66" viewBox="0 0 32 66" fill="none" xmlns="http://www.w3.org/2000/svg">
<g clip-path="url(#clip0)">
<path d="M18 5.4301H20.88L24.17 2.4301C24.3666 2.24572 24.5063 2.00884 24.5724 1.74753C24.6385 1.48623 24.6284 1.21144 24.5431 0.955729C24.4579 0.700016 24.3011 0.474094 24.0914 0.304726C23.8818 0.135358 23.6279 0.0296423 23.36 0.000102871C23.1312 -0.023161 22.9002 0.0102877 22.6875 0.0974931C22.4747 0.184698 22.2866 0.322975 22.14 0.500103L18 5.4301Z" fill="#ADA67D"/>
<path d="M15.84 12.7102C10.545 12.7326 5.25582 13.0665 0 13.7102L0 58.4802C5.21204 59.5541 10.5185 60.1035 15.84 60.1202V12.7102Z" fill="#D9DAC1"/>
<path d="M15.8398 12.7102V60.1202C21.158 60.103 26.4611 59.5536 31.6698 58.4802V13.7102C26.4145 13.0983 21.1304 12.7646 15.8398 12.7102Z" fill="#D5D3B5"/>
<path d="M15.8398 60.12V65.12C20.099 65.1197 24.345 64.6468 28.4998 63.71C29.3079 61.8276 30.3748 60.0672 31.6698 58.48C26.4611 59.5534 21.158 60.1028 15.8398 60.12Z" fill="#ADA67D"/>
<path d="M0 58.48C1.29501 60.0672 2.36198 61.8276 3.17 63.71C7.32928 64.6372 11.5786 65.1001 15.84 65.09V60.09C10.5195 60.0832 5.21306 59.5438 0 58.48H0Z" fill="#CEC9A7"/>
<path d="M15.8398 7.21018V12.7102C21.1304 12.7645 26.4145 13.0983 31.6698 13.7102C30.4898 11.8302 29.3098 9.92018 28.1198 8.00018C24.0492 7.45784 19.9464 7.19389 15.8398 7.21018Z" fill="#CEC9A7"/>
<path d="M15.84 7.21021C11.7357 7.25918 7.63675 7.52287 3.56 8.00021L0 13.7102C5.25582 13.0665 10.545 12.7326 15.84 12.7102V7.21021Z" fill="#D5D3B5"/>
<path d="M28.1198 8.00003H28.2398V5.33003C24.1269 4.80821 19.9857 4.54103 15.8398 4.53003V7.21003C19.9464 7.19373 24.0492 7.45768 28.1198 8.00003Z" fill="#D9DAC1"/>
<path d="M15.8401 4.53009C11.734 4.51967 7.63178 4.78024 3.56006 5.31008V8.00009C7.63699 7.5261 11.7359 7.26574 15.8401 7.22008V4.53009Z" fill="#F4F4E4"/>
<path d="M8.40021 7.53017L6.47021 13.0902L9.36021 12.8902L9.94021 7.42017L8.40021 7.53017Z" fill="#FFFEE9"/>
<path d="M15.8398 17.9102V53.5402C21.1285 53.5401 26.4131 53.2496 31.6698 52.6702V18.7802C26.4131 18.2007 21.1285 17.9103 15.8398 17.9102Z" fill="#FF4E1F"/>
<path d="M0 18.7802V52.6702C5.26009 53.2499 10.5481 53.5403 15.84 53.5402V17.9102C10.5481 17.91 5.26009 18.2004 0 18.7802H0Z" fill="#FF6A4D"/>
<g style="mix-blend-mode:screen" opacity="0.5">
<g style="mix-blend-mode:screen" opacity="0.5">
<path d="M9.45021 59.8401L6.47021 59.5401V13.0901L9.45021 12.0901V59.8401Z" fill="#FFFEE9"/>
</g>
</g>
</g>
<defs>
<clipPath id="clip0">
<rect width="31.67" height="65.09" fill="white"/>
</clipPath>
</defs>
</svg>
