<svg width="26" height="70" viewBox="0 0 26 70" fill="none" xmlns="http://www.w3.org/2000/svg">
<path d="M13.4301 13.91C13.2801 7.42 14.6501 4.29 15.9401 2.8C16.4973 2.05866 17.3163 1.55792 18.2301 1.4V0.7V1.4V0C16.95 0.149501 15.7813 0.800375 14.9801 1.81C13.5101 3.46 11.9801 6.88 12.0601 13.81L13.0001 14L13.4301 13.91Z" fill="#7F2400"/>
<path d="M21.88 12.8001C19.88 13.2301 14.88 13.8001 13.43 13.9101L13 14.0001V19.2601C18.2 19.2601 23 15.4201 25.74 12.6401C24.4528 12.4937 23.1507 12.5477 21.88 12.8001Z" fill="#FF4E1F"/>
<path d="M21.92 66.1099C21.0565 65.5904 20.3378 64.8617 19.8301 63.9912C19.3225 63.1206 19.0422 62.1362 19.0153 61.1289C18.9884 60.1215 19.2157 59.1235 19.6762 58.2271C20.1366 57.3307 20.8155 56.5648 21.65 55.9999C21.65 55.8699 21.65 55.7199 21.65 55.5499L21.54 54.3599C21.203 51.7664 21.4247 49.1307 22.19 46.6299C22.39 46.1299 22.62 45.6299 22.84 45.1299C21.1127 43.7132 19.9445 41.7293 19.5434 39.5317C19.1424 37.334 19.5345 35.0654 20.65 33.1299C20.9552 32.6213 21.2891 32.1305 21.65 31.6599C21.5684 31.5777 21.4916 31.4909 21.42 31.3999C20.5112 30.4995 19.8338 29.3926 19.4455 28.1737C19.0572 26.9548 18.9695 25.66 19.19 24.3999C20.01 19.4799 23.3 16.5599 25.87 12.6399H25.78C23 15.3699 18.23 19.2099 13 19.2099V64.4499C15 65.8199 21.07 68.7999 24.5 68.1399C24.81 68.0399 25.13 67.9599 25.43 67.8499C24.1996 67.4006 23.0225 66.8171 21.92 66.1099Z" fill="#FFC969"/>
<path d="M13 64.45V68.91H19.36C21.1014 68.9011 22.8324 68.6417 24.5 68.14C21.1 68.8 15.07 65.82 13 64.45Z" fill="#FF4E1F"/>
<path d="M11.9999 13.84C10.0899 13.64 5.99988 13.19 4.16988 12.84C3.25257 12.6481 2.31696 12.5576 1.37988 12.57C2.57323 14.5906 4.27235 16.2656 6.3099 17.4299C8.34745 18.5943 10.6531 19.2077 12.9999 19.21V14L11.9999 13.84Z" fill="#FF6A4D"/>
<path d="M13.0002 64.45V19.21C10.653 19.2002 8.3488 18.579 6.31472 17.4077C4.28063 16.2363 2.58683 14.5552 1.4002 12.53C1.0302 12.53 0.670195 12.53 0.310195 12.58C0.304496 12.916 0.267671 13.2508 0.200195 13.58V13.78C1.1202 14.52 5.2002 18.78 5.4702 19.99C5.5802 20.51 5.9102 25.39 6.4002 27.57C6.62251 28.5431 6.61157 29.5549 6.36826 30.5229C6.12495 31.491 5.65617 32.3877 5.0002 33.14C4.9302 33.32 4.8602 33.51 4.7802 33.69C5.52827 34.4042 6.02623 35.3405 6.2002 36.36C6.7802 39.63 5.6002 44.21 3.4302 48.36C3.8502 48.89 4.2402 49.36 4.6002 49.91C5.30892 50.9221 5.59914 52.169 5.4102 53.39C5.78388 54.4488 5.86594 55.5885 5.64778 56.6899C5.42962 57.7913 4.91927 58.8137 4.1702 59.65C2.86473 61.4313 1.85199 63.4095 1.1702 65.51C0.940356 66.0739 0.648566 66.6106 0.300195 67.11C0.830195 67.02 1.4002 66.9 2.0802 66.76C8.9402 65.29 10.7902 63 13.0002 64.45Z" fill="#FFD788"/>
<path d="M2.11 66.7899C1.43 66.9299 0.86 67.0499 0.33 67.1399C0.22 67.2999 0.12 67.4799 0 67.6299C2.12251 68.4741 4.38577 68.9084 6.67 68.9099H13V64.4499C10.79 62.9999 8.94 65.2899 2.11 66.7899Z" fill="#FF6A4D"/>
<path d="M15.1198 68.3101C15.1198 68.7101 13.9398 69.0301 12.4698 69.0301C10.9998 69.0301 9.81982 68.7101 9.81982 68.3101C9.81982 67.9101 11.0098 67.5901 12.4698 67.5901C13.9298 67.5901 15.1198 67.9201 15.1198 68.3101Z" fill="#7F2400"/>
</svg>
