<svg width="80" height="64" viewBox="0 0 80 64" fill="none" xmlns="http://www.w3.org/2000/svg">
<path d="M42.8202 24.6701L9.16016 46.6601V21.1001H32.7702L42.8202 24.6701Z" fill="#F4F4E4"/>
<path d="M19.2098 50.23L9.25977 46.54V21.23L19.2098 24.67V50.23Z" fill="#BCB691"/>
<path d="M42.82 24.6699H19.21V50.2299H42.82V24.6699Z" fill="#CCC8A3"/>
<path d="M74.0402 16.75L50.1802 8.20003L56.1402 1.28003L80.0002 9.83003L74.0402 16.75Z" fill="#F4F4E4"/>
<path d="M74.0402 57.16L50.1802 48.3699V8.19995L74.0402 16.75V57.16Z" fill="#ADA67D"/>
<path d="M50.1798 8.19995H36.7998V48.6199H50.1798V8.19995Z" fill="#1C75BC"/>
<path d="M60.6598 57.16L36.7998 48.3699V8.19995L60.6598 16.75V57.16Z" fill="#BCB691"/>
<path d="M74.0402 16.75H60.6602V57.17H74.0402V16.75Z" fill="#E0DDC6"/>
<path d="M60.6599 16.75L36.7999 8.2L32.1699 0L56.0299 8.55L60.6599 16.75Z" fill="#CEC9A7"/>
<path d="M0.0800781 49.29L32.5801 40.47L52.0801 49.33L19.5801 58.14L0.0800781 49.29Z" fill="#D2F9FF"/>
<path d="M19.58 45.75L5.04004 49.69L11.27 52.52L25.67 48.61L19.58 45.75Z" fill="#195467"/>
<path d="M32.1699 41.9199L21.8599 44.7099L33.6599 50.0399L44.6199 47.9799L32.1699 41.9199Z" fill="#195467"/>
<path d="M42.1101 46.8401L14.8501 54.2401L17.4901 55.3401L44.6201 47.9801L42.1101 46.8401Z" fill="#195467"/>
<path d="M45.6199 48.27L18.3599 55.66L20.9999 56.77L48.1299 49.41L45.6199 48.27Z" fill="#195467"/>
<path d="M52.9102 54.39L20.4102 63.2C21.2259 63.0589 21.9686 62.6425 22.5145 62.0202C23.0604 61.3978 23.3765 60.6072 23.4102 59.78L55.2202 52.52C55.1702 54.25 54.6302 53.92 52.9102 54.39Z" fill="#D2F9FF"/>
<path d="M23.3701 59.6799L55.8701 50.8599V50.9599L23.3701 59.7799V59.6799Z" fill="#E1E2E1"/>
<path d="M19.5801 58.1401L52.0801 49.3301C54.3701 50.3301 55.2001 50.6101 55.1801 52.5201L23.1001 61.0601C23.1201 59.1601 21.8701 59.1801 19.5801 58.1401Z" fill="#D2F9FF"/>
<path d="M0.08 49.29L19.58 58.14C21.87 59.14 23.12 59.14 23.1 61.06L23.37 59.78C23.37 62.37 20.62 63.78 17.57 63.3C16.8782 63.1856 16.2052 62.977 15.57 62.68L0 55.48L0.08 49.29Z" fill="#BDD1BD"/>
</svg>
