<svg width="25" height="70" viewBox="0 0 25 70" fill="none" xmlns="http://www.w3.org/2000/svg">
<g clip-path="url(#clip0)">
<path d="M0 15.14V16.19C0 15.83 0 15.48 0.05 15.14H0Z" fill="#7DC5C9"/>
<path d="M12 6.81V0H10.5C9.8324 0.0130927 9.19657 0.287522 8.72911 0.764328C8.26166 1.24113 7.99987 1.88227 8 2.55V7.15C9.12501 6.91763 10.2713 6.80368 11.42 6.81H12Z" fill="#9ADEE5"/>
<path d="M12.69 6.81C13.8387 6.80368 14.985 6.91763 16.11 7.15V2.55C16.11 1.8737 15.8413 1.2251 15.3631 0.746878C14.8849 0.26866 14.2363 0 13.56 0L12 0V6.81H12.69Z" fill="#86D1D1"/>
<path d="M24 15.1401C23.56 10.6901 20.38 8.03005 16.1 7.14005C14.975 6.90769 13.8287 6.79373 12.68 6.80005H12V22.5501C16.015 22.5498 20.0251 22.8339 24 23.4001V15.1401Z" fill="#7DC5C9"/>
<path d="M11.3701 6.80999C10.2381 6.80713 9.10875 6.92107 8.0001 7.14999C3.7201 8.02999 0.540098 10.69 0.100098 15.15C0.100098 15.49 0.100098 15.84 0.100098 16.2V23.4C4.07502 22.8338 8.08505 22.5498 12.1001 22.55V6.80999H11.3701Z" fill="#AFE6EF"/>
<path d="M0 54.14V64.84C0 65.9009 0.421427 66.9183 1.17157 67.6684C1.92172 68.4186 2.93913 68.84 4 68.84H4.08C5.38688 68.801 6.63618 68.2935 7.6 67.41C8.0495 68.183 8.69038 68.8273 9.46099 69.2809C10.2316 69.7346 11.106 69.9822 12 70V55C7.9849 54.992 3.97522 54.7046 0 54.14H0Z" fill="#AFE6EF"/>
<path d="M12 55V70C12.9014 69.9813 13.7828 69.7304 14.5588 69.2714C15.3349 68.8124 15.9794 68.1609 16.43 67.38C17.4042 68.2786 18.6748 68.7876 20 68.81H20.08C21.1409 68.81 22.1583 68.3886 22.9084 67.6384C23.6586 66.8883 24.08 65.8709 24.08 64.81V54.14C20.0783 54.7083 16.0418 54.9957 12 55Z" fill="#7DC5C9"/>
<g style="mix-blend-mode:screen">
<g style="mix-blend-mode:screen">
<path d="M6.82002 8.70996L5.00002 10.77C3.88803 12.0488 3.27388 13.6853 3.27002 15.38V60.88C3.27002 61.0559 3.30468 61.2302 3.37202 61.3928C3.43936 61.5553 3.53807 61.7031 3.6625 61.8275C3.78693 61.9519 3.93465 62.0506 4.09722 62.118C4.2598 62.1853 4.43405 62.22 4.61002 62.22C4.791 62.2267 4.97147 62.1967 5.14053 62.1318C5.30959 62.0669 5.46374 61.9683 5.59366 61.8422C5.72357 61.716 5.82656 61.5648 5.89641 61.3977C5.96625 61.2306 6.0015 61.0511 6.00002 60.87L5.50002 14C5.46932 12.3935 5.81162 10.8018 6.50002 9.34996L6.82002 8.70996Z" fill="#AFE6EF"/>
</g>
</g>
<path d="M12 22.55V55C16.0149 54.9953 20.0245 54.7113 24 54.1501V23.4C20.0251 22.8339 16.015 22.5498 12 22.55Z" fill="#40AFA1"/>
<path d="M12 22.55C7.98495 22.5498 3.97493 22.8339 0 23.4L0 54.14C3.97522 54.7046 7.9849 54.992 12 55V22.55Z" fill="#45C6AB"/>
</g>
<defs>
<clipPath id="clip0">
<rect width="24.06" height="70" fill="white"/>
</clipPath>
</defs>
</svg>
