<svg width="189" height="245" viewBox="0 0 189 245" fill="none" xmlns="http://www.w3.org/2000/svg">
<path d="M27.1712 3.72345C26.4761 4.11189 25.8219 4.56167 25.1268 5.01144C23.4933 6.18149 22.0162 7.55559 20.7312 9.10031C18.2952 11.9376 16.5399 15.2942 15.5997 18.9136C14.8482 22.0096 14.6475 25.2137 15.0068 28.3793C15.3678 31.6288 16.0527 34.8341 17.0512 37.9473C17.9712 41.0344 19.0957 44.1828 20.0566 46.7179C21.1401 49.6415 22.469 53.301 23.4912 56.9401C24.4078 60.0671 24.9432 63.2935 25.0859 66.5489C25.0861 68.4116 24.8874 70.2689 24.493 72.0894C24.0752 73.762 23.4503 75.376 22.6326 76.8938C22.2558 77.5409 21.8176 78.1502 21.3241 78.7133C21.0564 78.967 20.7693 79.1994 20.4655 79.4084L19.8726 79.6742H19.3001C19.065 79.6703 18.8313 79.636 18.605 79.572C18.3118 79.5023 18.0297 79.3923 17.7668 79.2449C17.2302 78.9079 16.724 78.5248 16.2539 78.1C15.1242 76.8922 14.1427 75.5539 13.3304 74.1133C13.3066 74.1499 13.294 74.1925 13.294 74.236C13.294 74.2796 13.3066 74.3222 13.3304 74.3587C12.0207 71.8915 10.9527 69.3035 10.1411 66.6307C9.7829 65.1748 9.50308 63.7007 9.30283 62.2147V61.9898V61.4787L9.15972 60.4565V60.1908C8.8735 58.2894 8.54639 56.1019 8.09662 54.0574C7.6353 51.6949 6.89407 49.3957 5.88863 47.2086C5.41133 46.2178 4.84328 45.2733 4.19175 44.3873C3.49283 43.4288 2.66758 42.5692 1.73842 41.8317C-0.226479 40.3014 -2.54798 39.2954 -5.00822 38.9082C-7.23545 38.5391 -9.51335 38.6085 -11.714 39.1126C-13.669 39.5512 -15.5401 40.3038 -17.2544 41.3411L-17.7859 41.6682C-21.0191 43.762 -23.6146 46.7041 -25.289 50.173C-26.0381 51.7048 -26.5878 53.3263 -26.9246 54.9979C-27.6354 58.8827 -27.3183 62.8859 -26.0046 66.6103C-24.6389 70.4916 -22.6953 74.1446 -20.2393 77.4458C-18.9717 79.2244 -17.5406 80.9622 -16.2731 82.516C-14.7311 84.3378 -13.3171 86.2642 -12.0411 88.2813C-11.2248 89.6946 -10.5731 91.1969 -10.0989 92.7586C-9.77093 93.9732 -9.58568 95.2219 -9.54686 96.4795C-9.5391 97.6413 -9.66254 98.8004 -9.91486 99.9346C-10.1717 100.739 -10.5288 101.509 -10.978 102.224C-11.2189 102.602 -11.4925 102.958 -11.7957 103.287C-12.0297 103.507 -12.2828 103.706 -12.5522 103.88C-12.7903 103.993 -13.0363 104.089 -13.2882 104.167C-13.564 104.229 -13.8443 104.27 -14.1264 104.289C-14.6146 104.284 -15.1009 104.229 -15.5779 104.126C-16.143 103.97 -16.6909 103.757 -17.2135 103.492C-17.6282 103.235 -18.0183 102.941 -18.3788 102.613C-18.8581 102.08 -19.2891 101.505 -19.6668 100.895C-20.4944 99.3531 -21.1787 97.738 -21.7113 96.0706L-22.2019 94.6804C-22.8479 92.6016 -23.8969 90.6703 -25.289 88.9968C-26.0315 88.2225 -26.8945 87.5735 -27.8446 87.0751C-28.7463 86.5616 -29.7275 86.2023 -30.7477 86.012C-31.5935 85.8686 -32.4574 85.8686 -33.3032 86.012C-34.1967 86.1548 -35.0603 86.445 -35.8587 86.8706L-36.3085 87.116C-37.7682 88.0128 -39.0447 89.1783 -40.0703 90.5506C-41.3141 92.1334 -42.3451 93.8723 -43.1369 95.723C-43.9622 97.5531 -44.5926 99.465 -45.0178 101.427C-45.583 103.812 -45.9522 106.239 -46.1218 108.685C-46.9396 119.07 -44.2409 129.129 -41.7876 136.796C-40.5405 140.68 -39.1094 144.524 -37.5352 148.797L-37.2694 149.512L-37.1467 149.86C-35.3885 154.562 -33.5894 159.428 -32.097 164.314C-31.7903 165.316 -31.5041 166.358 -31.1974 167.34C-29.6245 172.819 -28.7252 178.469 -28.5192 184.165C-28.5192 184.615 -28.5192 185.085 -28.5192 185.535C-28.5386 185.816 -28.4669 186.096 -28.3148 186.332C-28.129 186.556 -27.8665 186.701 -27.5788 186.741C-27.3444 186.767 -27.108 186.717 -26.9041 186.598C-26.555 186.73 -26.1697 186.73 -25.8206 186.598C-24.6961 186.189 -23.5308 185.801 -22.345 185.453C-16.3867 183.931 -10.2584 183.175 -4.10866 183.204C1.34998 183.204 6.62462 183.409 12.9419 183.736H14.2708C16.4584 183.879 18.6255 184.002 20.813 184.063C23.4094 184.063 26.149 184.063 28.9907 184.063C34.7282 183.859 40.4385 183.176 46.0618 182.019C51.5933 180.862 56.9672 179.05 62.0697 176.621C63.1942 176.049 64.339 175.436 65.443 174.781C66.547 174.127 67.835 173.309 68.9799 172.492C70.1248 171.674 70.6768 171.204 71.3514 170.611C72.0683 169.966 72.7507 169.283 73.3959 168.566C76.2436 165.569 78.5659 162.113 80.2652 158.344C82.0563 154.718 82.8669 150.686 82.6163 146.65C82.4992 144.695 81.9549 142.79 81.0216 141.069C79.9941 139.301 78.5999 137.775 76.9328 136.591C76.0753 135.969 75.1575 135.435 74.1932 134.997C73.1868 134.554 72.1292 134.238 71.0448 134.056C68.9976 133.738 66.9059 133.863 64.9115 134.424C62.7426 135.013 60.6234 135.772 58.5737 136.694H58.3693C56.7337 137.368 54.8937 138.125 53.0537 138.738C51.51 139.143 49.9261 139.376 48.3311 139.433C47.5001 139.44 46.6708 139.357 45.8573 139.188C45.4422 139.085 45.0381 138.941 44.6511 138.758L44.2218 138.472L43.9356 138.063L43.7925 137.757C43.7812 137.559 43.7812 137.361 43.7925 137.164L43.9151 136.366C44.0974 135.766 44.337 135.184 44.6307 134.629C45.2093 133.624 45.8947 132.685 46.6751 131.828C47.55 130.971 48.5247 130.223 49.5782 129.599C51.3612 128.619 53.2557 127.857 55.2209 127.33C59.7047 126.251 64.2744 125.567 68.8777 125.286L69.8795 125.183C71.9239 124.999 74.2341 124.795 76.483 124.427C78.2705 124.119 80.0334 123.682 81.7576 123.118C84.5218 122.22 87.1758 121.013 89.6696 119.52C90.5896 118.989 91.4891 118.416 92.3478 117.803C95.6514 115.603 98.4409 112.716 100.526 109.339C101.524 107.7 102.256 105.913 102.693 104.044C103.129 102.141 103.246 100.179 103.04 98.2377C102.891 96.6226 102.484 95.0419 101.834 93.5559C101.589 92.9951 101.288 92.4608 100.934 91.9613C100.587 91.4591 100.182 90.9994 99.7282 90.5915C98.0616 89.1776 95.9214 88.4471 93.738 88.5471C91.1451 88.6368 88.5809 89.1194 86.1327 89.9782C83.7816 90.7142 81.451 91.6342 79.1816 92.5133L78.2003 92.9017C75.6683 93.9584 73.0818 94.8797 70.4519 95.6617C69.117 96.0357 67.7465 96.2687 66.363 96.3568C65.7292 96.3601 65.0974 96.2846 64.4821 96.1319C64.1277 96.0419 63.7847 95.9116 63.4599 95.7435C63.1845 95.5761 62.9245 95.3845 62.683 95.171C62.4897 94.945 62.3121 94.7059 62.1515 94.4555C62.0125 94.3407 61.8948 94.2023 61.8039 94.0466C61.7539 93.8728 61.7197 93.6949 61.7017 93.515C61.7017 93.3106 61.7017 93.1266 61.7017 92.9426C61.8065 92.6032 61.9434 92.2746 62.1106 91.9613C62.5789 91.2273 63.12 90.5423 63.7257 89.9168C64.8427 88.8284 66.0386 87.8239 67.3035 86.9115C68.9186 85.7053 70.595 84.6217 71.7195 83.9062L76.0332 81.2484L76.483 80.9827L76.9123 80.7169L77.3416 80.4511C78.0572 80.0218 78.7727 79.5924 79.3861 79.1222C79.7666 78.8889 80.1351 78.6365 80.4901 78.3658C81.0742 77.8904 81.6273 77.3783 82.1461 76.8325C83.3853 75.5684 84.5139 74.2004 85.5194 72.7436C86.614 71.1437 87.5845 69.4623 88.4225 67.7143C89.2952 65.9651 90.0201 64.146 90.5896 62.2761C91.7828 58.9296 92.1064 55.3348 91.53 51.829C91.2363 50.3062 90.6078 48.8677 89.69 47.6175C88.7028 46.3696 87.4157 45.392 85.9487 44.7757C85.1387 44.4629 84.3046 44.2167 83.4545 44.0397C82.3753 43.847 81.2793 43.7648 80.1834 43.7944C77.8716 43.7284 75.5722 44.1535 73.4368 45.0415C73.016 45.2212 72.6064 45.426 72.2101 45.6548C69.2313 47.7236 66.803 50.4888 65.1364 53.7099L64.6661 54.4459C63.402 56.7159 61.8938 58.841 60.1684 60.7836C59.3897 61.5686 58.5177 62.2552 57.572 62.8281C56.4894 63.4327 55.3356 63.8998 54.1373 64.2183C53.5346 64.3764 52.9187 64.479 52.2973 64.5249C51.9401 64.5144 51.5844 64.4734 51.2342 64.4023C51.0422 64.3486 50.857 64.2731 50.6822 64.1774C50.5131 64.0873 50.3553 63.9775 50.212 63.8503L50.0484 63.3801C49.8693 63.0798 49.7317 62.7565 49.6395 62.4192C49.53 61.8869 49.4616 61.3469 49.4351 60.8041C49.4591 58.835 49.7339 56.877 50.2529 54.9774C51.0361 51.9886 52.0266 49.0579 53.2173 46.2068L53.9124 44.5099L54.1373 43.9988L55.2822 41.1571C56.1817 38.7651 56.9791 36.3731 57.6128 34.022C59.0029 29.24 59.5222 24.2472 59.1462 19.2816C58.9292 16.8733 58.3574 14.5103 57.4493 12.2692C56.4978 9.94614 55.1564 7.80272 53.4831 5.93144C52.7533 5.08814 51.9531 4.30844 51.0911 3.60078C48.6613 1.68826 45.7424 0.49802 42.668 0.166129C40.6285 -0.0908354 38.5624 -0.0495134 36.5347 0.288796C34.4894 0.639146 32.4926 1.22929 30.5854 2.04701C29.4096 2.54111 28.2689 3.11488 27.1712 3.76434" fill="#FBFEC7"/>
<path d="M25.188 5.05233C23.5493 6.21592 22.0713 7.59076 20.7925 9.1412C19.7525 10.3464 18.8284 11.647 18.0325 13.0256C19.4227 15.0701 20.8742 17.1145 22.4485 19.1589C24.0227 21.2034 25.9444 23.2478 27.8049 25.2922C27.7488 25.2259 27.6872 25.1643 27.6209 25.1082C31.0964 28.7064 34.7968 32.0593 38.5791 35.3304C38.5791 32.7135 38.5791 30.0762 38.5791 27.4389C38.5023 20.8984 37.9419 14.3724 36.9026 7.91454C36.4733 5.46122 35.9622 3.02834 35.3488 0.615906C33.7279 0.949034 32.1404 1.42802 30.6058 2.04701C29.4304 2.5342 28.2896 3.10115 27.1915 3.74389C26.5169 4.15278 25.8422 4.58211 25.1471 5.05233" fill="#FCB42C"/>
<path d="M15.5998 18.9341C14.8512 22.0165 14.6437 25.2055 14.9865 28.3589C15.3632 31.6058 16.0478 34.8095 17.0309 37.9269C17.9304 40.8913 19.0753 43.8353 20.0566 46.6975C21.2629 50.0095 22.51 53.4237 23.4913 56.9197C24.4136 60.0517 24.9425 63.2863 25.0655 66.549C25.0924 68.4118 24.9003 70.2714 24.4931 72.0894C24.0824 73.7738 23.4499 75.3963 22.6122 76.9143C22.2482 77.5645 21.8165 78.1744 21.3242 78.7338C21.0507 78.9954 20.7567 79.2347 20.4451 79.4494L19.8318 79.7151H19.2593H18.5438C18.2574 79.6168 17.9775 79.5008 17.7055 79.3676C17.1676 79.0249 16.6613 78.6349 16.1927 78.2023C15.0496 77.0007 14.0607 75.6615 13.2487 74.2156C13.2288 74.2962 13.2288 74.3804 13.2487 74.4609C11.8632 72.0103 10.759 69.4111 9.95714 66.7125C9.58537 65.1884 9.29195 63.6463 9.07803 62.0921V61.5606L8.93493 60.5383C8.60781 58.4939 8.2807 56.2859 7.83093 54.1801C7.36974 51.8241 6.62848 49.5317 5.62294 47.3517C5.14565 46.3609 4.57759 45.4164 3.92606 44.5304C3.23471 43.5782 2.41613 42.7252 1.49318 41.9953C-0.464859 40.4572 -2.79033 39.4565 -5.25346 39.0922C-7.47176 38.7056 -9.74509 38.7682 -11.9388 39.2762C-13.8885 39.7113 -15.7534 40.4642 -17.4587 41.5046L-17.9698 41.8113C-18.5014 42.1384 -18.9921 42.5064 -19.5032 42.8949C-16.7518 50.343 -13.5005 57.5968 -9.77166 64.6068L-9.66944 64.8112C-5.65861 72.3134 -0.697453 79.2672 5.09138 85.5009L4.90738 85.2964C8.8457 89.4441 13.2977 93.0717 18.1553 96.0911C20.2473 97.3604 22.4113 98.5072 24.6362 99.5257C26.1491 96.0502 27.5802 92.5542 28.8886 88.9969C31.4301 82.16 33.4798 75.1501 35.0219 68.021C36.4033 61.2706 37.3795 54.4436 37.9455 47.5766C38.2317 44.4077 38.4566 41.2389 38.5792 38.07L38.4566 37.9678C34.1188 34.3176 29.97 30.4486 26.0264 26.3758C24.1455 24.3314 22.3464 22.287 20.67 20.2425C19.4229 18.6479 18.2167 16.9919 17.0718 15.295C16.4776 16.4635 15.9851 17.681 15.5998 18.9341Z" fill="#FCB42C"/>
<path d="M-22.8562 46.2068C-23.8806 47.462 -24.7522 48.8346 -25.4526 50.2956C-26.1983 51.8555 -26.7411 53.5044 -27.0677 55.2023C-27.779 59.0735 -27.4617 63.0636 -26.1477 66.7738C-24.7821 70.6551 -22.8384 74.3081 -20.3824 77.6093C-19.0944 79.4084 -17.6838 81.1257 -16.2936 82.8226C-14.7931 84.5855 -13.4264 86.458 -12.2047 88.4243C-11.337 89.8318 -10.6502 91.3429 -10.1602 92.9221C-9.82024 94.1418 -9.62805 95.3979 -9.5878 96.6634C-9.58125 97.8252 -9.70468 98.9841 -9.9558 100.119C-10.2053 100.861 -10.5488 101.569 -10.978 102.224C-11.2104 102.609 -11.4773 102.972 -11.7753 103.308C-12.0164 103.528 -12.2764 103.726 -12.5522 103.901L-13.2269 104.269C-13.5099 104.33 -13.7968 104.371 -14.0856 104.391C-14.5802 104.381 -15.0728 104.327 -15.5576 104.228C-16.1224 104.082 -16.6654 103.862 -17.1727 103.574C-17.5973 103.322 -17.9947 103.028 -18.3584 102.694C-18.8509 102.167 -19.2892 101.592 -19.6669 100.977C-20.4922 99.4054 -21.1764 97.7634 -21.7113 96.0705L-22.1815 94.7416C-22.8231 92.6445 -23.8799 90.6977 -25.2891 89.0172C-26.7683 87.5016 -28.671 86.4683 -30.7477 86.0528C-31.5857 85.8988 -32.4448 85.8988 -33.2828 86.0528C-33.72 86.1281 -34.1507 86.2374 -34.5708 86.3799C-34.4412 86.5269 -34.3686 86.7155 -34.3664 86.9115C-33.8999 92.8453 -32.991 98.736 -31.6473 104.534C-29.6524 113.219 -26.5105 121.6 -22.3042 129.456L-22.4473 129.211C-19.2516 135.153 -15.2927 140.651 -10.6714 145.566C-8.83066 147.421 -6.88526 149.168 -4.84471 150.8L-4.47671 150.269C-1.08295 145.464 2.22903 140.598 5.33658 135.61C8.44412 130.621 11.2654 125.613 14.0459 120.502C17.4601 114.205 20.7107 107.785 23.6343 101.222C20.4199 99.7785 17.3351 98.0617 14.4139 96.091C5.61032 89.8166 -1.82535 81.8175 -7.44114 72.58C-12.9362 63.6618 -17.512 54.209 -21.098 44.3668C-21.7256 44.9681 -22.3129 45.6101 -22.8562 46.2885V46.2068ZM-31.6881 104.514C-31.6881 104.514 -31.6881 104.637 -31.6881 104.698C-31.6881 104.759 -31.6881 104.575 -31.6881 104.514Z" fill="#FCB42C"/>
<path d="M39.2331 9.2025C39.6625 11.9625 39.9896 14.7634 40.2145 17.5438C42.1483 16.9565 44.0075 16.1469 45.7549 15.1314L45.53 15.2745C48.9572 13.22 52.1814 10.8446 55.1593 8.18028C54.6359 7.41927 54.0694 6.68889 53.4624 5.99273C52.7267 5.16128 51.9269 4.38884 51.0704 3.68252C48.6432 1.77202 45.7354 0.569263 42.6678 0.206982C40.923 -0.00795871 39.1584 -0.00795871 37.4136 0.206982C38.1827 3.17028 38.7901 6.17322 39.2331 9.2025Z" fill="#FCB42C"/>
<path d="M49.8234 14.9678C46.9511 17.0275 43.7603 18.6022 40.3781 19.6291C40.5213 21.9393 40.6235 24.2495 40.6644 26.5802C40.7666 32.4273 40.6644 38.2743 40.1533 44.1214C39.7648 49.5596 39.1924 55.0183 38.3746 60.4769C37.5061 66.2285 36.2631 71.9173 34.6537 77.5071C33.9586 79.9195 33.2226 82.3115 32.4253 84.683C36.2518 83.6487 39.9802 82.2805 43.5675 80.5942C47.2066 78.8768 50.7639 76.9959 54.2599 75.0128C60.1403 71.7207 65.7284 67.9315 70.9629 63.6867C72.2509 62.6031 73.5389 61.5196 74.786 60.3747C76.0331 59.2298 77.0144 58.3303 78.1389 57.2672C79.8562 55.652 81.6349 54.1187 83.3113 52.4627V52.3401C84.9626 50.7471 86.4176 48.9627 87.6455 47.0245C87.8295 46.6974 88.0135 46.3499 88.177 46.0023C87.545 45.5161 86.859 45.1045 86.1326 44.7757C85.326 44.4578 84.4908 44.2182 83.6384 44.0601C82.5659 43.8675 81.4773 43.7785 80.3877 43.7943C78.0831 43.7343 75.7915 44.1592 73.6616 45.0414C73.2365 45.2198 72.8263 45.4317 72.4349 45.6752C69.4628 47.7344 67.0353 50.4846 65.3611 53.6894L64.9114 54.4458C63.6332 56.7069 62.126 58.8307 60.4136 60.7836C59.6268 61.5679 58.7481 62.2544 57.7967 62.828C56.707 63.4325 55.5464 63.8995 54.3416 64.2182C53.7394 64.3783 53.1233 64.481 52.5016 64.5249C52.1456 64.5121 51.7905 64.478 51.4385 64.4227C51.2426 64.3533 51.0514 64.2714 50.8661 64.1773C50.7014 64.0802 50.5443 63.9708 50.3959 63.8502L49.987 63.38C49.8381 63.0679 49.7084 62.747 49.5986 62.4191C49.4877 61.8801 49.4193 61.3333 49.3941 60.7836C49.4263 58.8151 49.701 56.8582 50.2119 54.9569C51.002 51.9968 51.9924 49.0938 53.1763 46.2681L53.8714 44.5712C54.3416 43.4468 54.7914 42.3428 55.2207 41.2183C56.1407 38.8468 56.9176 36.4344 57.5718 34.0833C58.9625 29.3084 59.4819 24.3222 59.1052 19.3633C58.8897 16.9262 58.3108 14.535 57.3878 12.2691C57.0677 11.4472 56.692 10.6481 56.2634 9.87714C54.2081 11.6801 52.0584 13.3726 49.8234 14.9473V14.9678ZM83.4135 52.197L83.5566 52.0743L83.4135 52.197Z" fill="#FCB42C"/>
<path d="M89.4856 47.8628C88.202 49.9707 86.6488 51.9019 84.8652 53.6077C83.1479 55.325 81.3079 56.8992 79.5292 58.5552C78.4457 59.5774 77.4848 60.5996 76.2786 61.6014C75.0724 62.6032 73.9479 63.6459 72.7417 64.6681C70.2475 66.7125 67.692 68.7569 65.0137 70.5152C59.773 74.083 54.3101 77.313 48.6583 80.1853C45.8983 81.596 43.0974 82.9658 40.2147 84.1311C37.4149 85.2598 34.5387 86.189 31.6077 86.9115C28.8179 94.7885 25.5545 102.49 21.8353 109.973C20.4042 112.985 18.864 116.011 17.2148 119.05H17.4806C24.7818 118.909 32.0525 118.067 39.1925 116.535C45.9392 115.309 52.6449 113.919 59.2893 112.242H59.0236C70.9088 109.43 82.3786 105.087 93.1452 99.3213L92.9816 99.4235C96.0162 97.7093 98.9388 95.8042 101.732 93.7195L101.609 93.4333C101.356 92.8765 101.055 92.3429 100.71 91.8386C100.36 91.3503 99.9632 90.8983 99.5238 90.4893C97.8604 89.0838 95.7299 88.3542 93.5541 88.4449C90.962 88.5423 88.3989 89.0246 85.9488 89.876C83.5977 90.612 81.267 91.532 79.0181 92.4315L78.0368 92.82C75.4813 93.8013 72.9053 94.8644 70.2679 95.5595C68.9355 95.948 67.5642 96.188 66.1791 96.275C65.5462 96.2824 64.9147 96.2137 64.2982 96.0706C63.9383 95.9681 63.5891 95.8312 63.2555 95.6617C62.9847 95.4875 62.7253 95.2963 62.4786 95.0893C62.2773 94.8647 62.0928 94.6255 61.9266 94.3737C61.8599 94.2426 61.8051 94.1058 61.7631 93.9648C61.7456 93.7881 61.7456 93.61 61.7631 93.4333C61.7518 93.2426 61.7518 93.0515 61.7631 92.8608C61.875 92.5144 62.0188 92.1791 62.1924 91.8591C62.6543 91.1205 63.1959 90.4349 63.8075 89.8146C64.9246 88.72 66.1204 87.7087 67.3853 86.7889C68.8777 85.6849 70.4519 84.6422 71.8013 83.7835C73.1506 82.9249 74.6635 82.0049 76.115 81.1462L76.5648 80.8805C77.5666 80.2671 78.6092 79.6538 79.5497 79.02C79.9238 78.7796 80.2854 78.5203 80.6332 78.2431C81.2209 77.7794 81.7744 77.2738 82.2892 76.7302C83.5412 75.4777 84.6708 74.1086 85.6625 72.6414C86.7541 71.0358 87.7311 69.3552 88.5861 67.6121C89.4051 65.8541 90.0886 64.036 90.6305 62.1739C91.8031 58.8229 92.1262 55.2333 91.571 51.7268C91.2678 50.2445 90.6394 48.8479 89.731 47.6379C89.7392 47.5975 89.7392 47.5557 89.731 47.5153C89.6683 47.658 89.5931 47.7948 89.5061 47.9241" fill="#FCB42C"/>
<path d="M13.719 125.449C12.3084 127.984 10.8772 130.499 9.40525 132.993C7.93326 135.487 6.35905 137.981 4.76439 140.435C-0.0400372 147.795 -5.23291 154.95 -10.344 162.147C-8.97422 162.29 -7.58401 162.372 -6.25512 162.433C-1.40245 162.569 3.45389 162.378 8.28081 161.86C12.7581 161.452 17.2354 160.9 21.6923 160.348C30.3204 159.345 38.8911 157.898 47.3704 156.013H47.1046C55.8222 154.162 64.2664 151.201 72.2307 147.202H71.9854C75.1844 145.518 78.211 143.526 81.0218 141.253C79.9995 139.481 78.6043 137.954 76.933 136.775C76.0678 136.165 75.1512 135.632 74.1934 135.181C73.1847 134.744 72.1278 134.428 71.045 134.24C68.9969 133.941 66.9092 134.066 64.9117 134.608C62.7342 135.195 60.6023 135.94 58.533 136.837C56.7444 137.615 54.9154 138.298 53.0539 138.881C51.5152 139.31 49.9285 139.544 48.3313 139.576C47.5008 139.597 46.6706 139.522 45.8575 139.351C45.4323 139.25 45.0206 139.099 44.6309 138.901L44.222 138.513L43.9153 138.104C43.9153 138.104 43.8131 137.879 43.7722 137.757C43.7521 137.559 43.7521 137.361 43.7722 137.164C43.7509 136.898 43.7509 136.632 43.7722 136.366C43.9569 135.763 44.2036 135.181 44.5082 134.629C45.0694 133.613 45.7563 132.672 46.5526 131.828C47.4353 130.96 48.4165 130.198 49.4762 129.558C51.2625 128.585 53.1561 127.824 55.1188 127.289C59.6947 126.221 64.3518 125.538 69.0414 125.245H69.7979C71.965 125.04 74.2139 124.836 76.381 124.468C78.1768 124.168 79.947 123.73 81.676 123.159C84.4281 122.255 87.074 121.056 89.5676 119.582C90.4876 119.05 91.3871 118.457 92.2458 117.864C95.539 115.661 98.3265 112.783 100.424 109.421C101.375 107.772 102.064 105.986 102.468 104.126C102.901 102.222 103.025 100.262 102.836 98.3194C102.736 97.5352 102.593 96.7571 102.407 95.9888C97.3904 99.6319 92.0124 102.749 86.3578 105.291C75.2499 110.126 63.6616 113.771 51.7864 116.167C46.0415 117.435 40.2762 118.518 34.4905 119.5C31.4034 120.011 28.3572 120.502 25.1883 120.788C22.1788 121.081 19.1529 121.17 16.1314 121.054C15.3341 122.526 14.5368 123.998 13.719 125.449Z" fill="#FCB42C"/>
<path d="M-26.4953 186.66C-26.2804 186.712 -26.056 186.712 -25.8411 186.66C-24.6962 186.251 -23.5309 185.862 -22.3655 185.535C-16.4032 183.997 -10.2661 183.241 -4.10874 183.286C1.47257 183.286 6.91076 183.491 12.9418 183.818H14.2707C16.4583 183.94 18.6254 184.084 20.8129 184.145C23.4094 184.145 26.1489 184.145 28.9907 184.145C34.7186 183.893 40.4152 183.161 46.0208 181.957C51.5458 180.801 56.9129 178.989 62.0083 176.56C63.1532 175.988 64.2776 175.395 65.3816 174.74C66.4856 174.086 67.7736 173.248 68.898 172.451C70.0225 171.653 70.6154 171.163 71.29 170.57C72.0075 169.925 72.6899 169.243 73.3345 168.525C76.1795 165.526 78.5014 162.071 80.2038 158.303C81.9959 154.685 82.8067 150.659 82.5549 146.629C82.4805 145.433 82.2538 144.252 81.8802 143.113C78.5051 145.808 74.8359 148.113 70.9425 149.982C66.057 152.365 60.9747 154.322 55.7523 155.829C45.0348 158.805 34.0962 160.917 23.0414 162.147L15.2316 163.087C12.2467 163.435 9.24142 163.782 6.2361 164.028C0.253248 164.61 -5.77207 164.61 -11.7549 164.028C-16.9682 171.388 -21.9771 178.829 -26.5566 186.639" fill="#FCB42C"/>
<path d="M187.986 189.379C187.74 189.417 187.5 189.485 187.271 189.583L186.596 189.787C186.044 189.951 185.513 190.135 184.981 190.339L184.49 190.503L180.401 191.914L177.662 192.875L176.844 193.161L176.497 193.263C175.229 193.631 174.064 193.958 172.878 194.265C171.345 194.592 169.791 194.899 168.258 195.185H168.523C166.213 195.512 163.903 195.921 161.593 196.309C159.282 196.698 157.381 197.025 155.296 197.413C154.671 197.445 154.05 197.52 153.435 197.638C152.385 197.852 151.398 198.307 150.553 198.967C149.575 199.762 148.739 200.715 148.079 201.788C147.293 202.918 146.609 204.116 146.035 205.366C145.851 205.775 145.667 206.184 145.503 206.593L145.299 207.104C144.552 209.004 143.67 210.849 142.661 212.624C142.158 213.459 141.561 214.234 140.883 214.934C140.557 215.237 140.201 215.504 139.819 215.731C139.399 215.959 138.927 216.072 138.45 216.058C138.194 216.039 137.941 215.998 137.693 215.936C137.353 215.808 137.024 215.651 136.712 215.466C136.498 215.306 136.294 215.136 136.099 214.954C135.942 214.767 135.799 214.569 135.669 214.362C135.54 214.093 135.438 213.812 135.363 213.523C135.28 213.085 135.239 212.64 135.24 212.194C135.308 211.267 135.473 210.349 135.731 209.455C136.516 207.106 137.544 204.845 138.797 202.708C139.308 201.788 139.86 200.889 140.412 199.989L141.823 197.659C141.897 197.484 141.927 197.293 141.909 197.104C141.891 196.915 141.826 196.733 141.721 196.575C141.61 196.427 141.464 196.308 141.297 196.23C141.129 196.151 140.945 196.115 140.76 196.125C135.697 196.241 130.663 196.927 125.754 198.17C121.162 199.359 116.718 201.059 112.506 203.24C108.398 205.392 104.497 207.917 100.852 210.784C97.2191 213.701 93.8027 216.878 90.6303 220.29C85.9078 225.417 81.5687 230.883 77.6482 236.646C74.1522 241.696 70.6766 247.216 66.3833 254.535C66.3282 254.664 66.2998 254.803 66.2998 254.944C66.2998 255.084 66.3282 255.223 66.3833 255.353C66.4792 255.622 66.6776 255.842 66.9353 255.966C67.0841 255.992 67.2363 255.992 67.3851 255.966C67.507 255.985 67.6312 255.985 67.7531 255.966C67.8671 256.014 67.9711 256.084 68.0598 256.17C68.176 256.291 68.316 256.386 68.4708 256.449C68.6257 256.512 68.792 256.543 68.9593 256.538H70.3291C71.7397 256.538 73.1504 256.763 74.4179 256.927H74.8268L79.6721 257.52C82.6775 257.888 85.6828 258.256 88.6881 258.583C95.2507 259.278 100.73 259.666 105.964 259.768H108.008C113.125 259.766 118.236 259.398 123.3 258.664C129.413 257.713 135.418 256.165 141.23 254.044C146.225 252.255 151.021 249.953 155.541 247.175C159.789 244.569 163.685 241.429 167.133 237.832C170.624 234.17 173.589 230.042 175.945 225.565C178.577 220.187 180.679 214.566 182.221 208.78L182.344 208.33L182.937 206.286C184.421 200.927 186.42 195.723 188.906 190.748C188.982 190.574 189.013 190.383 188.995 190.193C188.977 190.004 188.911 189.822 188.804 189.665C188.706 189.527 188.577 189.413 188.429 189.331C188.28 189.25 188.115 189.203 187.945 189.195" fill="#437F43"/>
<path d="M186.494 189.828L184.879 190.38L184.409 190.544L180.32 191.955L177.58 192.916L176.763 193.202L175.393 193.672C175.393 193.897 175.393 194.101 175.393 194.326C175.331 196.323 175.454 198.322 175.761 200.296C179.645 196.8 183.427 193.202 187.21 189.624L186.515 189.828" fill="#1F585E"/>
<path d="M170.098 195.512C169.075 195.859 168.053 196.187 167.01 196.493C166.377 196.698 165.722 196.902 164.966 197.045L164.046 197.188H163.739C162.799 197.291 161.879 197.352 160.939 197.393H160.162C160.284 202.218 161.061 207.002 161.634 211.704C165.334 208.985 168.912 206.061 172.387 203.035L173.88 201.707C173.775 201.557 173.717 201.378 173.716 201.195C173.553 199.785 173.328 198.354 173.246 196.923C173.174 196.038 173.174 195.149 173.246 194.265L169.995 195.369" fill="#1F585E"/>
<path d="M129.332 197.495C129.005 199.54 128.718 201.38 128.514 203.342C127.778 209.519 127.84 215.765 128.698 221.926C129.035 224.102 129.541 226.248 130.211 228.346C134.995 226.608 139.738 224.707 144.338 222.499H144.481C143.428 219.403 142.809 216.176 142.641 212.91C142.144 213.732 141.554 214.493 140.883 215.179C140.561 215.481 140.204 215.741 139.82 215.956C139.594 216.081 139.354 216.177 139.104 216.243H138.429L137.653 216.099C137.314 215.968 136.986 215.811 136.671 215.629C136.454 215.475 136.249 215.304 136.058 215.118C135.883 214.925 135.732 214.713 135.608 214.484C135.485 214.22 135.382 213.947 135.301 213.667C135.219 213.215 135.178 212.756 135.179 212.297C135.256 211.37 135.42 210.453 135.669 209.557C136.454 207.208 137.481 204.946 138.736 202.811C139.268 201.891 139.82 200.991 140.351 200.092C140.883 199.192 141.312 198.538 141.762 197.761C141.853 197.602 141.902 197.423 141.902 197.24C141.902 197.056 141.853 196.877 141.762 196.718C141.655 196.582 141.518 196.473 141.362 196.398C141.206 196.324 141.035 196.286 140.862 196.289C137.004 196.391 133.161 196.815 129.373 197.556L129.332 197.495Z" fill="#1F585E"/>
<path d="M125.795 198.313C121.21 199.505 116.774 201.205 112.567 203.383L110.993 204.221C110.768 207.338 110.768 210.468 110.993 213.585C111.259 217.142 111.749 220.679 112.301 224.195C112.813 227.385 113.385 230.574 113.896 233.784L115.061 233.395C119.457 232.005 123.852 230.594 128.207 229.061C126.611 223.676 125.866 218.075 125.999 212.46C126.039 207.598 126.449 202.745 127.226 197.945L125.795 198.313Z" fill="#1F585E"/>
<path d="M100.914 210.907C98.8696 212.522 96.8252 214.3 94.7808 216.263C94.9239 217.96 95.1283 219.657 95.3941 221.333V221.088C96.355 226.955 97.9905 232.68 99.483 238.445C103.572 237.014 107.845 235.665 112.056 234.356V233.968C112.066 233.927 112.066 233.885 112.056 233.845C112.047 233.791 112.047 233.736 112.056 233.682C111.095 227.753 110.012 221.844 109.358 215.854C109.037 212.887 108.901 209.904 108.949 206.92V205.305C106.18 206.972 103.517 208.808 100.975 210.804" fill="#1F585E"/>
<path d="M90.6302 220.413C87.1308 224.165 83.8606 228.125 80.8374 232.271C80.8856 233.421 80.9947 234.567 81.1645 235.705C81.6831 238.725 82.5262 241.679 83.6792 244.517L85.0694 243.904L88.1974 242.595C88.2963 242.527 88.4073 242.478 88.5245 242.452H88.6676C91.5911 241.287 94.5351 240.183 97.4995 239.161C96.3751 234.826 95.128 230.533 94.208 226.158C93.6356 223.5 93.1858 220.822 92.8791 218.144L90.6302 220.454" fill="#1F585E"/>
<path d="M77.6689 236.687C74.3161 241.532 70.9427 246.909 66.813 253.86L69.6139 251.979C73.5472 249.495 77.6456 247.282 81.8805 245.355C80.6894 242.547 79.825 239.611 79.3045 236.605C79.3045 236.012 79.1 235.419 79.0387 234.806L77.7098 236.687" fill="#1F585E"/>
<path d="M157.484 197.474H156.523C155.481 197.463 154.44 197.552 153.415 197.74C152.37 197.96 151.386 198.407 150.533 199.049C149.575 199.858 148.748 200.81 148.079 201.87C147.294 203 146.61 204.197 146.035 205.448C145.769 206.02 145.524 206.613 145.278 207.186C145.033 207.758 144.788 208.392 144.522 208.985C144.532 209.052 144.532 209.121 144.522 209.189C144.522 211.515 144.686 213.838 145.013 216.14C145.024 216.18 145.024 216.223 145.013 216.263C145.003 216.303 145.003 216.345 145.013 216.385C145.286 218.101 145.703 219.79 146.26 221.435C150.644 219.184 154.866 216.629 158.894 213.789L159.712 213.217V212.93C159.16 207.778 158.281 202.708 158.138 197.474H157.402" fill="#1F585E"/>
<path d="M181.71 197.597L183.346 198.313C184.02 198.579 184.695 198.803 185.39 199.008C186.366 196.202 187.541 193.469 188.906 190.83C188.924 190.777 188.924 190.72 188.906 190.667C186.494 193.038 184.095 195.348 181.71 197.597Z" fill="#1F585E"/>
<path d="M168.769 208.985L169.034 209.21C172.173 211.578 175.61 213.524 179.257 214.995H179.011L180.299 215.466C181.035 213.278 181.689 211.111 182.344 209.046L182.487 208.576L183.059 206.531C183.611 204.773 184.184 202.913 184.817 201.011C183.232 200.53 181.692 199.907 180.217 199.151C176.537 202.565 172.776 205.898 168.891 209.067" fill="#1F585E"/>
<path d="M166.888 210.579C163.009 213.673 158.954 216.54 154.744 219.166C158.097 221.926 161.368 224.788 164.843 227.344C167.142 229.075 169.576 230.62 172.122 231.964C173.512 229.963 174.782 227.881 175.924 225.729C177.324 223.008 178.533 220.194 179.543 217.306C177.518 216.574 175.55 215.692 173.655 214.668C171.371 213.393 169.184 211.951 167.113 210.354L166.888 210.579Z" fill="#1F585E"/>
<path d="M140.31 226.505L137.816 227.548C138.205 228.08 138.613 228.591 139.022 229.102L138.859 228.897C143.812 234.833 149.493 240.122 155.766 244.64L155.909 244.762L157.565 245.989C161.008 243.676 164.188 240.996 167.052 237.995C168.396 236.603 169.653 235.128 170.813 233.579C167.692 231.902 164.729 229.945 161.961 227.732C158.833 225.299 155.828 222.703 152.802 220.188C148.765 222.556 144.587 224.672 140.29 226.526" fill="#1F585E"/>
<path d="M120.827 233.682C122.369 236.778 124.233 239.704 126.387 242.411C130.114 246.953 134.218 251.173 138.654 255.025L141.066 254.187C146.054 252.381 150.849 250.08 155.378 247.318L155.664 247.134C152.209 244.599 148.835 241.962 145.626 239.079C141.991 235.824 138.69 232.214 135.771 228.305C130.783 230.349 125.733 232.005 120.643 233.661" fill="#1F585E"/>
<path d="M105.555 238.547C106.533 240.497 107.626 242.388 108.826 244.21C110.032 246.071 111.341 247.85 112.71 249.587C112.668 249.511 112.612 249.442 112.547 249.383C115.245 252.756 118.169 255.925 121.093 259.094L123.137 258.808C127.621 258.113 132.048 257.095 136.385 255.761C132.987 252.789 129.777 249.607 126.776 246.234C125.143 244.374 123.628 242.415 122.237 240.367C120.932 238.405 119.764 236.356 118.741 234.234C114.325 235.644 109.869 237.034 105.453 238.466" fill="#1F585E"/>
<path d="M90.0784 244.067C90.2964 244.708 90.5418 245.342 90.8144 245.969C92.2811 249.143 94.1352 252.123 96.3343 254.841L96.1708 254.637C97.5901 256.402 99.1197 258.075 100.75 259.646L106.025 259.83H107.947C111.504 259.831 115.059 259.653 118.598 259.298C116.268 256.763 113.937 254.208 111.77 251.529C110.164 249.565 108.663 247.518 107.272 245.396C105.936 243.402 104.714 241.334 103.613 239.202C99.0534 240.714 94.5352 242.289 90.0784 244.067Z" fill="#1F585E"/>
<path d="M81.0218 248.033C79.6725 248.688 78.3436 249.362 77.0352 250.078L77.1783 250.446C77.8887 252.01 78.7807 253.486 79.836 254.841C80.791 256.027 81.8743 257.104 83.0662 258.051L88.7498 258.705C91.9595 259.053 94.8831 259.319 97.684 259.523C96.1021 257.858 94.6336 256.089 93.2884 254.228C91.1283 251.36 89.3995 248.192 88.1569 244.824C85.724 245.826 83.3116 246.868 80.9196 248.033" fill="#1F585E"/>
<path d="M183.673 191.443C180.954 192.323 178.214 193.079 175.495 193.733C175.495 193.917 175.495 194.122 175.495 194.326C175.495 194.837 175.495 195.348 175.495 195.859C177.948 195.287 180.402 194.653 182.814 193.815L184.981 191.771C184.889 191.627 184.762 191.508 184.612 191.426C184.462 191.344 184.293 191.301 184.122 191.3C184.021 191.281 183.917 191.281 183.816 191.3" fill="#1F585E"/>
<path d="M168.217 195.246H168.483C165.743 195.757 163.004 196.227 160.305 196.698C160.305 197.372 160.305 198.067 160.305 198.742C163.412 198.211 166.438 197.679 169.607 197.107C170.854 196.882 172.081 196.616 173.308 196.371C173.269 195.69 173.269 195.007 173.308 194.326C171.611 194.694 169.893 195.042 168.176 195.369" fill="#1F585E"/>
<path d="M153.006 197.924C152.878 197.964 152.759 198.03 152.657 198.118C152.555 198.206 152.472 198.314 152.413 198.435C152.347 198.552 152.305 198.682 152.291 198.816C152.277 198.95 152.29 199.085 152.33 199.214C152.371 199.342 152.437 199.461 152.525 199.563C152.613 199.664 152.721 199.747 152.843 199.805C153.101 199.897 153.382 199.897 153.64 199.805L155.173 199.499H154.908L158.281 198.885C158.281 198.211 158.281 197.515 158.281 196.841L153.068 197.781" fill="#1F585E"/>
<path d="M179.502 192.507L175.413 193.611C175.413 193.856 175.413 194.081 175.413 194.326C175.413 194.572 175.413 195.287 175.413 195.757L180.197 194.469C180.455 194.385 180.67 194.203 180.796 193.962C180.922 193.722 180.949 193.442 180.872 193.181C180.805 192.969 180.671 192.785 180.491 192.656C180.31 192.527 180.092 192.46 179.87 192.466H179.563" fill="#1F585E"/>
<path d="M166.05 195.962C165.797 196.056 165.587 196.237 165.457 196.473C165.356 196.729 165.356 197.014 165.457 197.27C165.543 197.515 165.718 197.72 165.948 197.843C166.205 197.935 166.487 197.935 166.745 197.843C168.973 197.372 171.181 196.82 173.369 196.227C173.369 195.512 173.369 194.817 173.369 194.183C170.956 194.837 168.524 195.451 166.07 195.962" fill="#1F585E"/>
<path d="M178.398 192.936L175.434 193.795V194.326C175.434 194.858 175.434 195.41 175.434 195.941C176.66 195.614 177.887 195.246 179.114 194.878C179.368 194.789 179.578 194.606 179.7 194.366C179.822 194.126 179.846 193.848 179.768 193.59C179.702 193.382 179.572 193.2 179.395 193.071C179.218 192.942 179.005 192.873 178.786 192.875C178.685 192.855 178.581 192.855 178.48 192.875" fill="#1F585E"/>
<path d="M164.271 196.575C164.014 196.659 163.8 196.842 163.678 197.084C163.555 197.325 163.533 197.605 163.617 197.863C163.656 197.992 163.721 198.112 163.808 198.215C163.895 198.319 164.001 198.403 164.122 198.464C164.242 198.525 164.373 198.562 164.508 198.571C164.643 198.58 164.778 198.562 164.905 198.517C167.706 197.883 170.527 197.229 173.308 196.473C173.269 195.792 173.269 195.109 173.308 194.428C170.302 195.226 167.174 195.941 164.23 196.616" fill="#1F585E"/>
<path d="M173.307 88.1382C173.117 88.1366 172.932 88.1937 172.776 88.3018C159.939 97.3804 146.244 105.18 131.887 111.588C126.449 113.919 121.031 115.963 115.777 117.721C112.956 118.621 110.073 119.479 107.19 120.236C104.929 120.875 102.637 121.393 100.321 121.79H100.035C95.8614 122.278 91.6633 122.524 87.4615 122.526H85.1104C81.0215 122.526 76.5851 122.669 72.2304 123.037C70.0673 123.214 67.9167 123.521 65.7904 123.957C63.9426 124.332 62.145 124.922 60.434 125.715C58.937 126.408 57.5949 127.395 56.4883 128.618C55.363 129.911 54.4143 131.348 53.6669 132.891C52.5652 135.164 51.6689 137.532 50.9887 139.965C50.1914 142.643 49.5576 145.423 48.9443 147.897L48.3718 150.453C48.0039 152.252 47.6154 154.03 47.1861 155.809C46.6403 158.15 45.9576 160.458 45.1416 162.719C44.8759 163.373 44.5896 164.048 44.283 164.764C43.9763 165.479 43.5061 166.195 43.0972 166.808C42.2794 168.178 41.3594 169.609 40.3372 171.04C38.5634 173.577 36.4673 175.872 34.1017 177.868H34.3879C33.5044 178.496 32.575 179.056 31.6075 179.545C31.2157 179.699 30.8124 179.822 30.4013 179.913H29.9106H29.5222L29.2359 179.749C29.2359 179.749 29.011 179.545 28.9088 179.422C28.7698 179.228 28.6467 179.023 28.5408 178.809C28.3342 178.289 28.1901 177.747 28.1115 177.194C27.8955 175.374 27.8955 173.535 28.1115 171.715C28.4386 169.139 28.9702 166.665 29.6244 163.68L30.2786 160.757C30.7897 158.487 31.2804 156.238 31.7506 153.969C33.2268 147.593 33.9812 141.071 33.9995 134.526C34.0165 134.218 33.9129 133.916 33.7106 133.683C33.5083 133.45 33.2233 133.305 32.9159 133.279C32.7505 133.286 32.5884 133.327 32.4403 133.401C32.2923 133.476 32.1617 133.58 32.0573 133.709C27.6451 135.733 23.376 138.055 19.2795 140.66C15.3342 143.173 11.57 145.961 8.0147 149.001C1.25303 154.829 -4.75619 161.477 -9.87411 168.791C-20.8118 184.002 -27.906 201.768 -33.4669 217.081C-35.9407 223.97 -38.394 231.392 -40.3771 237.198C-43.6073 246.766 -46.9397 256.681 -50.7015 266.474V266.679L-51.2535 267.967L-53.2979 273.201C-53.9031 274.6 -54.5857 275.965 -55.3424 277.289L-56.1397 278.659C-56.7326 279.661 -57.305 280.704 -57.8366 281.726C-57.9381 281.888 -57.9919 282.076 -57.9919 282.268C-57.9919 282.459 -57.9381 282.647 -57.8366 282.809C-57.7389 282.967 -57.6038 283.098 -57.4433 283.191C-57.2828 283.283 -57.1019 283.335 -56.9166 283.341H-56.6099C-44.7948 279.819 -32.7134 277.262 -20.4847 275.695L-16.0279 275.081L-13.2474 274.693C-9.75145 274.223 -6.23502 273.732 -2.73903 273.221H-2.45282C5.1116 272.117 10.8974 271.177 16.2947 270.073C22.3789 268.865 28.3919 267.322 34.3061 265.452C39.5987 263.689 44.7923 261.642 49.8643 259.319C69.6779 250.59 87.3036 237.567 101.466 221.19C103.919 218.307 106.332 215.2 108.805 211.724C111.51 207.907 113.989 203.934 116.227 199.826C120.642 191.605 124.395 183.046 127.451 174.229C127.491 174.092 127.501 173.948 127.48 173.807C127.458 173.666 127.407 173.531 127.328 173.412C127.264 173.285 127.173 173.173 127.062 173.085L126.796 172.9C126.645 172.821 126.477 172.779 126.306 172.778C126.191 172.76 126.073 172.76 125.958 172.778L122.728 173.432C120.684 173.861 118.639 174.25 116.738 174.577C114.455 174.973 112.144 175.185 109.828 175.211C108.961 175.215 108.094 175.174 107.231 175.088C106.221 174.973 105.227 174.747 104.267 174.413C103.757 174.197 103.271 173.93 102.815 173.616C102.503 173.365 102.209 173.091 101.936 172.798C101.666 172.423 101.427 172.026 101.22 171.613C100.912 170.852 100.673 170.065 100.505 169.261C100.414 168.528 100.414 167.787 100.505 167.053C100.578 166.481 100.715 165.919 100.914 165.377C101.19 164.741 101.526 164.131 101.916 163.557C102.536 162.818 103.22 162.134 103.96 161.513C105.383 160.404 106.934 159.471 108.58 158.733C111.541 157.468 114.644 156.569 117.821 156.054C119.847 155.707 121.899 155.529 123.955 155.523C124.875 155.523 125.795 155.523 126.674 155.645C127.185 155.645 127.716 155.789 128.227 155.891C128.956 156.049 129.673 156.254 130.374 156.504L132.132 157.424L133.032 157.874C133.764 158.264 134.575 158.481 135.403 158.508C135.915 158.49 136.419 158.387 136.896 158.201C137.434 158.007 137.948 157.753 138.429 157.445C139.177 156.988 139.864 156.438 140.474 155.809C141.092 155.162 141.672 154.479 142.211 153.765C142.825 152.906 143.397 152.027 144.011 150.964C145.237 148.919 146.3 146.711 147.2 144.83C147.67 143.829 148.14 142.786 148.59 141.784L148.938 141.028L149.939 138.779C150.328 137.961 150.696 137.164 151.105 136.346C151.514 135.528 152.086 134.445 152.597 133.525L152.842 133.054L156.931 125.674L157.34 124.958L157.667 124.386C159.098 121.81 160.55 119.234 161.961 116.658C166.82 108.101 170.964 99.1567 174.35 89.9169C174.422 89.7258 174.422 89.515 174.35 89.324C174.351 89.15 174.301 88.9796 174.207 88.8333C174.101 88.6738 173.959 88.5422 173.792 88.4496C173.624 88.3571 173.437 88.3063 173.246 88.3018" fill="#FC8D93"/>
<path d="M157.361 98.3603C157.197 99.0759 157.034 99.8119 156.911 100.568C156.703 101.645 156.628 102.744 156.686 103.839C156.72 104.208 156.795 104.571 156.911 104.923C157.007 105.145 157.123 105.357 157.258 105.557C160.236 102.983 163.075 100.253 165.763 97.379V97.2768C168.137 94.6528 170.278 91.8277 172.162 88.8333C167.072 92.3497 162.104 95.5594 157.197 98.5239" fill="#FE6869"/>
<path d="M137.346 109.114L137.1 110.75C136.628 113.373 136.45 116.04 136.569 118.703C136.649 119.508 136.814 120.303 137.06 121.074C141.987 117.537 146.893 113.98 151.636 110.198C153.027 109.114 154.376 108.01 155.725 106.865L155.562 106.661C155.406 106.441 155.269 106.209 155.153 105.966C155.003 105.607 154.88 105.238 154.785 104.862C154.725 104.544 154.684 104.223 154.662 103.901C154.58 102.529 154.69 101.153 154.989 99.812C149.06 103.308 143.193 106.395 137.366 109.155" fill="#FE6869"/>
<path d="M131.826 111.629C127.737 113.428 123.464 115.063 119.314 116.515C119.089 118.007 118.885 119.5 118.721 121.013C118.256 124.399 118.132 127.824 118.353 131.235C118.448 132.321 118.646 133.396 118.946 134.445C124.398 130.356 129.85 126.342 135.301 122.403C134.942 121.533 134.701 120.618 134.586 119.684C134.44 118.627 134.385 117.56 134.422 116.495C134.534 114.398 134.759 112.31 135.097 110.239L131.785 111.731" fill="#FE6869"/>
<path d="M115.777 117.701C113.017 118.58 110.135 119.438 107.17 120.215C104.911 120.86 102.618 121.378 100.301 121.769H100.076C98.9312 121.912 97.7659 122.035 96.621 122.137C96.0486 124.59 95.5375 127.085 95.1081 129.579V129.334C94.0907 134.722 93.7473 140.216 94.0859 145.689C94.2517 147.723 94.6707 149.728 95.333 151.659L95.4557 151.986L99.4219 149.021C105.378 144.551 111.348 140.087 117.331 135.63C116.738 133.897 116.407 132.085 116.35 130.254C116.244 128.038 116.292 125.818 116.493 123.609C116.677 121.565 116.943 119.357 117.249 117.23L115.818 117.701" fill="#FE6869"/>
<path d="M87.1547 122.526H85.1102C80.8987 122.526 76.5236 122.669 72.2507 123.037H71.9032C70.0223 127.453 68.305 131.91 66.7921 136.448C64.5529 142.894 62.8168 149.504 61.5992 156.218C60.6879 161.165 60.4063 166.207 60.761 171.224C60.9383 173.402 61.3776 175.55 62.0695 177.623C72.5642 169.445 83.1203 161.268 93.7378 153.09C92.9003 151.032 92.3699 148.862 92.1635 146.65C91.6848 141.376 91.9047 136.062 92.8178 130.846C93.2675 127.964 93.8195 125.102 94.4533 122.26C92 122.382 89.5262 122.423 87.1138 122.464" fill="#FE6869"/>
<path d="M65.7904 123.977C63.95 124.356 62.1594 124.946 60.4544 125.735C58.9482 126.432 57.599 127.426 56.4882 128.659C55.3398 129.977 54.3705 131.441 53.6056 133.013C52.5025 135.279 51.6061 137.64 50.9274 140.067C50.1505 142.684 49.5576 145.301 48.8829 147.999L48.3105 150.575C47.9221 152.354 47.5336 154.133 47.1043 155.911C46.564 158.254 45.8813 160.562 45.0598 162.821C44.7941 163.496 44.5078 164.15 44.1807 164.866C43.8536 165.581 43.4243 166.297 43.0154 166.91C42.1976 168.3 41.2572 169.732 40.2554 171.163C38.5137 173.694 36.4522 175.989 34.1221 177.991L34.3674 177.868C33.5832 178.47 32.7487 179.004 31.8732 179.463C31.0277 182.221 30.345 185.027 29.8288 187.866C29.819 187.784 29.819 187.702 29.8288 187.62C29.3336 190.316 29.1757 193.063 29.3586 195.798C29.5378 197.362 29.9227 198.895 30.5035 200.357C30.743 200.925 31.0161 201.478 31.3212 202.013C40.9914 194.326 50.7025 186.721 60.4136 179.075C59.7999 177.518 59.3544 175.901 59.0847 174.25C58.4034 169.719 58.3553 165.116 58.9416 160.572C59.5438 155.503 60.5279 150.487 61.8855 145.566C63.9531 137.997 66.5211 130.573 69.5726 123.343C68.2642 123.527 67.0171 123.732 65.7904 123.977Z" fill="#FE6869"/>
<path d="M31.9552 133.75C27.5459 135.78 23.2772 138.102 19.1774 140.701C15.2387 143.214 11.4813 146.002 7.93304 149.042C6.17483 150.534 4.43706 152.129 2.74018 153.805C2.37218 155.85 2.00418 157.894 1.67707 159.939V159.673C0.20508 168.403 -0.939804 177.173 -1.57358 186.005C-1.73713 188.213 -1.8598 190.442 -1.96202 192.691C-2.06424 194.592 -2.20736 196.534 -2.33002 198.456C-2.61956 202.266 -2.65371 206.09 -2.43224 209.905C-2.19558 212.438 -1.66734 214.935 -0.858026 217.346C-0.135018 219.225 0.81228 221.01 1.96329 222.662C2.43497 223.301 2.93996 223.916 3.47617 224.502C11.0406 218.151 18.6868 211.901 26.4147 205.755L29.7063 203.219L29.5836 203.015C29.12 202.231 28.7364 201.402 28.4387 200.541C27.7561 198.505 27.4041 196.372 27.3961 194.224C27.399 191.837 27.618 189.456 28.0503 187.109C28.4796 184.738 29.0316 182.387 29.6858 180.056C29.6047 180.07 29.5217 180.07 29.4405 180.056L29.1338 179.892C29.1338 179.892 28.9089 179.688 28.8067 179.565C28.6677 179.364 28.5446 179.152 28.4387 178.932C28.2275 178.405 28.0766 177.856 27.989 177.296C27.7714 175.476 27.7714 173.637 27.989 171.817C28.3772 169.038 28.9095 166.281 29.5836 163.557L30.2174 160.634C30.7285 158.365 31.2192 156.116 31.6894 153.846C33.1382 147.495 33.8651 141 33.8565 134.486C33.8841 134.257 33.8366 134.025 33.721 133.825C33.6055 133.626 33.4282 133.469 33.216 133.379C33.0037 133.289 32.7679 133.271 32.5442 133.327C32.3205 133.382 32.1209 133.509 31.9756 133.688" fill="#FE6869"/>
<path d="M-9.95559 168.812C-20.7706 184.002 -27.8648 201.768 -33.4666 217.101C-33.4666 217.428 -33.6915 217.735 -33.7937 218.062C-33.7937 221.987 -33.5893 225.913 -33.2417 229.838C-32.849 235.412 -31.7287 240.91 -29.9093 246.193C-29.1826 248.12 -28.2649 249.969 -27.1697 251.713C-17.7244 242.779 -7.99293 234.193 1.94303 225.81C1.51369 225.32 1.08436 224.829 0.695919 224.298C-0.0632591 223.308 -0.746677 222.262 -1.34851 221.17C-1.92343 220.071 -2.42872 218.938 -2.8614 217.776C-4.53802 212.251 -5.11454 206.451 -4.55828 200.705C-4.41517 197.863 -4.16984 195.021 -4.04717 192.179C-3.88362 188.867 -3.67917 185.555 -3.37251 182.264C-2.59562 173.575 -1.32807 164.927 0.123482 156.361C-3.57076 160.26 -6.98656 164.413 -10.0987 168.791" fill="#FE6869"/>
<path d="M166.499 99.4849C164.078 102.073 161.526 104.537 158.853 106.865H158.976C159.631 107.144 160.318 107.343 161.02 107.458C162.379 107.612 163.751 107.612 165.109 107.458L166.786 107.254C169.714 101.553 172.249 95.6579 174.371 89.6102C174.441 89.44 174.441 89.2489 174.371 89.0787C172.116 92.755 169.477 96.1815 166.499 99.3009" fill="#FE6869"/>
<path d="M154.212 110.77C149.224 114.859 143.99 118.58 138.818 122.321C138.572 122.505 138.327 122.689 138.061 122.853C138.284 123.113 138.523 123.359 138.777 123.589C139.233 123.931 139.719 124.232 140.228 124.488C141.164 124.888 142.146 125.169 143.152 125.326H142.907C144.944 125.573 147.003 125.573 149.04 125.326C152.027 125.017 154.991 124.511 157.913 123.814C159.283 121.34 160.673 118.886 162.002 116.413C163.33 113.939 164.455 111.915 165.682 109.503C165.003 109.588 164.321 109.636 163.637 109.646C162.259 109.699 160.882 109.547 159.548 109.196C158.76 108.984 158.009 108.653 157.32 108.215C156.318 109.073 155.275 109.891 154.315 110.709" fill="#FE6869"/>
<path d="M121.767 134.792L119.723 136.264L119.866 136.489C120.248 136.994 120.687 137.454 121.174 137.859C121.847 138.372 122.574 138.81 123.341 139.167C124.657 139.695 126.029 140.073 127.43 140.292C130.861 140.748 134.333 140.796 137.775 140.435C141.749 140.032 145.7 139.424 149.612 138.615H150.001C150.348 137.818 150.716 137.021 151.105 136.244C151.493 135.467 152.086 134.342 152.597 133.422L152.863 132.952C154.069 130.744 155.275 128.536 156.522 126.328C154.578 126.763 152.613 127.097 150.635 127.33C148.564 127.633 146.467 127.722 144.379 127.596C142.54 127.501 140.736 127.057 139.063 126.287C138.033 125.798 137.114 125.103 136.364 124.243C131.458 127.8 126.578 131.378 121.726 134.976" fill="#FE6869"/>
<path d="M96.3755 153.846C96.539 154.132 96.723 154.419 96.907 154.705C97.6304 155.711 98.475 156.624 99.4217 157.424L99.2173 157.26C100.426 158.162 101.745 158.904 103.143 159.468C103.85 159.78 104.573 160.053 105.31 160.286C106.261 159.689 107.252 159.157 108.274 158.692C111.328 157.388 114.537 156.481 117.822 155.993C119.847 155.629 121.898 155.424 123.955 155.38C124.875 155.38 125.795 155.38 126.674 155.523C127.202 155.569 127.728 155.644 128.248 155.748C128.942 155.919 129.624 156.13 130.293 156.381C131.008 156.688 131.622 156.995 132.337 157.301L133.094 157.69C133.827 158.071 134.638 158.281 135.465 158.303C135.968 158.288 136.465 158.191 136.937 158.017C137.481 157.823 138.002 157.569 138.491 157.26C139.24 156.806 139.928 156.257 140.535 155.625C141.17 154.992 141.751 154.308 142.273 153.581C142.845 152.804 143.418 151.925 144.093 150.8C145.319 148.756 146.382 146.507 147.261 144.667C147.854 143.399 148.427 142.132 148.999 140.864C144.786 141.706 140.526 142.293 136.242 142.622C134.2 142.753 132.151 142.753 130.109 142.622C128.266 142.53 126.441 142.222 124.67 141.702C123.11 141.301 121.639 140.607 120.336 139.658C119.702 139.181 119.132 138.624 118.639 138.002L118.312 137.552C111.034 143.004 103.776 148.456 96.539 153.908" fill="#FE6869"/>
<path d="M82.841 164.15C76.1761 169.207 69.559 174.352 62.9895 179.586C63.2625 180.079 63.5628 180.557 63.8891 181.017C64.763 182.194 65.7793 183.258 66.9148 184.186C68.4527 185.387 70.1271 186.403 71.9032 187.212C75.3647 188.694 78.9979 189.738 82.7183 190.319H82.4525C86.8744 191.027 91.3449 191.39 95.8231 191.403C100.294 191.403 104.757 191.205 109.214 190.81C112.962 190.469 116.683 189.992 120.377 189.379L121.358 189.215C123.403 184.676 125.447 179.749 127.348 174.25C127.38 174.119 127.386 173.982 127.365 173.849C127.344 173.716 127.296 173.588 127.226 173.473C127.152 173.352 127.055 173.248 126.939 173.166C126.867 173.087 126.785 173.019 126.694 172.962C126.54 172.922 126.378 172.922 126.224 172.962H125.897L122.646 173.616C120.602 174.025 118.659 174.454 116.656 174.781C114.38 175.181 112.076 175.399 109.766 175.436C108.846 175.436 107.967 175.436 107.149 175.292C106.131 175.178 105.129 174.945 104.164 174.597C103.645 174.38 103.151 174.106 102.692 173.78C102.362 173.55 102.066 173.275 101.813 172.962C101.534 172.593 101.294 172.195 101.098 171.776C100.769 171.014 100.522 170.219 100.362 169.404C100.271 168.664 100.271 167.916 100.362 167.176C100.447 166.604 100.591 166.042 100.791 165.5C101.044 164.856 101.373 164.245 101.772 163.68C102.27 163.039 102.825 162.444 103.428 161.901C101.159 161.057 99.0763 159.779 97.2951 158.14C96.3596 157.268 95.5417 156.279 94.8622 155.196L82.9841 164.253" fill="#FE6869"/>
<path d="M46.2663 192.813L32.6299 203.587C33.1819 204.201 33.7762 204.775 34.4085 205.305C36.142 206.648 38.0378 207.768 40.0512 208.637H39.8058C44.8814 210.738 50.1958 212.208 55.6298 213.012C58.9827 213.564 62.356 213.973 65.852 214.28C69.3479 214.586 72.251 214.77 75.4608 215.016C84.965 216.048 94.5382 216.294 104.083 215.752C104.758 215.752 105.453 215.629 106.127 215.527C107.027 214.341 107.947 213.094 108.867 211.806C111.562 207.987 114.033 204.014 116.268 199.907C117.74 197.229 119.13 194.449 120.5 191.525C117.74 191.955 114.98 192.343 112.179 192.629C104.94 193.477 97.642 193.703 90.3647 193.304C86.6592 193.085 82.9755 192.586 79.3452 191.811C76.0636 191.119 72.883 190.013 69.8795 188.52C67.2178 187.198 64.8636 185.331 62.9693 183.041C62.4448 182.394 61.9665 181.711 61.5382 180.996L46.2663 192.813Z" fill="#FE6869"/>
<path d="M12.3696 219.882C9.91629 221.885 7.4766 223.93 5.05054 226.015L6.01142 226.853C7.89604 228.345 9.9557 229.602 12.1447 230.594L11.8994 230.472C16.2271 232.266 20.7588 233.523 25.3927 234.213L27.6007 234.561C40.8671 236.267 54.2729 236.616 67.6103 235.603C74.6636 235.194 81.6964 234.602 88.7497 234.07C93.201 230.066 97.3809 225.77 101.262 221.211C102.243 220.086 103.183 218.941 104.144 217.735C99.2959 218.134 94.4266 218.215 89.5675 217.98C84.3542 217.755 79.1613 217.326 73.9685 216.917C70.5338 216.672 67.0583 216.447 63.6236 216.099C59.5347 215.691 55.6708 215.139 51.7454 214.341C47.6936 213.6 43.7275 212.449 39.9082 210.907C38.1669 210.203 36.4909 209.348 34.8993 208.351C33.4619 207.45 32.1549 206.357 31.0149 205.1L30.8718 204.937C24.643 209.884 18.4552 214.886 12.3083 219.943" fill="#FE6869"/>
<path d="M-25.8616 253.369C-25.1915 254.169 -24.4452 254.902 -23.6332 255.557L-23.8376 255.414C-22.2148 256.664 -20.4514 257.721 -18.5834 258.562C-14.0756 260.449 -9.35085 261.767 -4.51773 262.488C-0.93997 263.081 2.65824 263.489 6.27689 263.857L10.9995 264.307L16.6422 264.88C21.835 265.37 27.0279 265.779 32.2412 265.963L34.2857 265.289C39.5705 263.569 44.7575 261.563 49.8234 259.278C63.0073 253.409 75.2717 245.662 86.2348 236.278C76.2988 237.034 66.3424 237.852 56.3655 238.077C49.6967 238.271 43.0223 238.108 36.371 237.586C33.0181 237.3 29.6857 236.912 26.3737 236.38C23.675 235.951 20.9968 235.46 18.3595 234.786C16.0562 234.202 13.8008 233.443 11.6129 232.516C9.51191 231.614 7.51678 230.482 5.66356 229.143C4.91393 228.57 4.17793 227.957 3.45556 227.303C-6.56217 235.746 -16.3755 244.394 -25.8821 253.39" fill="#FE6869"/>
</svg>
